<?xml version="1.0" encoding="utf-8"?>
<!-- Generator: Adobe Illustrator 27.5.0, SVG Export Plug-In . SVG Version: 6.00 Build 0)  -->
<svg version="1.1" id="Layer_1" xmlns="http://www.w3.org/2000/svg" xmlns:xlink="http://www.w3.org/1999/xlink" x="0px" y="0px"
	 viewBox="0 0 2000 2000" style="enable-background:new 0 0 2000 2000;" xml:space="preserve">
<g>
	<path style="fill:#FEFEFE;" d="M1601.944,794.709c3.97-1.39,7.89-2.91,11.76-4.57c-2.99,46.25-29.76,89.85-64.03,120.16
		c-10.17,8.99-21.83,16.29-33.41,23.3c11.23,2.18,22.64,4.09,33.69,7.1c-29.51,37.48-85.95,63.98-130,79.8
		c8.6,5.38,17,9.78,26.48,13.45c-18.56,12.39-38.64,16.26-60.5,18.19c-6.19,38.35-12.74,80.83-25.33,117.57
		c-9.98,29.8-21.67,59.02-37.19,86.4c-2.79,4.9-5.57,10.58-9.07,14.94c-3.32,5.59-6.81,11.06-10.47,16.41
		c-3.67,5.36-7.51,10.59-11.52,15.7c-4.02,5.1-8.19,10.07-12.52,14.91c-4.34,4.83-8.83,9.52-13.47,14.06
		c-8.62,8.34-17.93,15.98-26.45,24.41c34.07,8.3,61.43,16.7,90.29,37.72c8.47,6.17,17.42,13.71,23.06,22.67
		c2.9,4.62,5.68,10.77,4.22,16.31c-0.81,3.08-3.04,5.88-5.87,7.34c-5.92,3.05-14.13,0.66-20.04-1.53
		c-6.42-2.38-12.42-5.77-18.35-9.17c3.95,9.52,10.48,23.49,6.49,33.77c-1.01,2.6-2.74,4.77-5.42,5.76
		c-4.11,1.52-9.07,0.01-12.82-1.85c-16.4-8.12-25.64-28.06-30.78-44.61c-2.88-9.25-5.05-19.31-5.33-29.01
		c-17.08-7.6-34.72-12.2-52.61-17.35c-22.81,16.1-47.11,29.77-73.81,38.3c-8.51,2.72-25.24,5.33-31.78,8.84
		c32.86,17.52,87.1,42.09,98.6,79.8c1.99,6.51,3.37,14.12,0.02,20.45c-1.29,2.44-3.52,4.38-6.18,5.2
		c-3.61,1.11-7.34-0.11-10.47-1.98c-9.52-5.7-16.51-17.25-22.98-26.08c4.93,14.87,10.21,34.83,2.78,49.85
		c-1.64,3.32-4.27,6.51-7.92,7.64c-3.46,1.06-7.12,0.14-10.15-1.67c-11.44-6.81-16.64-26.16-19.31-38.27
		c-3.66-16.66-5.8-34.36-6.51-51.39c-12.77-7.9-51.11-31.63-64.39-34.45c-6.08,1.34-13.65,0.64-19.85,0.33
		c-29.46-1.46-60.39-6.59-87.89-17.52c-6.58,16.57-16.58,32.74-26.03,47.84c-26.08,41.69-60.41,89.99-106.96,110.24
		c-10.28,4.48-29.35,10.98-40.38,6.14c-3.11-1.36-5.94-4.27-6.93-7.55c-1.34-4.41,0.59-9.68,2.4-13.7
		c5.66-13.59,16.4-23.9,22.63-36.88c-10.53,8.6-20.87,17.41-32.12,25.09c-30.19,20.62-72.78,40.25-109.96,36.55
		c-6.37-0.64-12.85-2.63-16.98-7.83c-3.22-4.06-3.91-8.9-3.22-13.92c0.41-3.04,1.34-5.61,2.69-8.35
		c9.46-21.74,29.29-39.44,46.38-55.32c-24.59,8.45-52.12,13.48-78.08,9.7c-8.62-1.25-20.54-3.59-25.79-11.21
		c-1.97-2.85-2.93-6.35-2.3-9.79c2.92-16.02,37.82-32.16,50.7-40.74l0.59-1.33c-17.73,4.63-40.82,6.76-59.07,3.67
		c-7.61,0.13-16.85-2.84-23.82-5.8c-8.25-3.51-18.25-9.58-21.53-18.31c-1.51-4.05-1.08-8.21,0.84-12.04
		c6.58-13.09,24.48-21.75,37.24-27.21c38.32-16.45,82.12-22.7,122.17-34.65c27.69-8.26,54.5-17.88,81.45-28.29
		c12.77-4.93,25.33-10.55,38.22-15.13c-13.15-21.85-19.51-46.72-24.72-71.4c-29.66,6.1-58-0.16-85.83-10.32
		c10.33-10.51,21.38-20.4,31.85-30.78c-13.33,1.07-26.51,1.68-39.88,0.69c-48.27-3.56-96.77-22.56-136.95-48.94
		c12.85-5.82,24.72-13.18,37.33-19.41c-18.24-6.19-33.36-9.28-51.15-18.07c-2.04-0.99-4.06-2.01-6.07-3.07
		c-2.01-1.06-4-2.15-5.97-3.27c-1.97-1.12-3.93-2.27-5.86-3.46c-1.94-1.18-3.85-2.39-5.75-3.64c-1.9-1.25-3.77-2.52-5.63-3.83
		c-1.85-1.3-3.69-2.64-5.5-4c-1.81-1.37-3.6-2.76-5.37-4.19c-1.77-1.42-3.51-2.87-5.23-4.35c-1.72-1.48-3.42-2.98-5.09-4.52
		c-1.67-1.53-3.32-3.09-4.94-4.68c-1.62-1.59-3.22-3.2-4.79-4.83c-1.57-1.64-3.11-3.31-4.63-4.99c-1.51-1.69-3-3.4-4.46-5.14
		c-1.46-1.74-2.9-3.49-4.3-5.28c-1.41-1.78-2.78-3.58-4.13-5.41c-1.34-1.82-2.66-3.67-3.95-5.54c-6.01-8.74-11.86-18.32-15.27-28.41
		c15.5-1.35,31.3-1.36,46.84-0.89c-18.25-9.81-34.71-20.93-49.8-35.16c-34.97-32.94-64.49-82.09-74.17-129.29
		c-2.3-11.22-2.85-22.19-3.16-33.59c20.36,11.18,40.54,20.98,62.98,27.36c-7.91-11.68-17.92-21.93-25.81-33.69
		c-37.66-56.1-48.07-119.7-34.96-185.39c8.96,9.98,18.25,19.62,27.89,28.95c87.78,84.15,182.01,149.4,293.58,198.27
		c31.15,13.64,63.41,25.01,95.18,37.09c14.61,5.56,28.96,12.19,43.31,18.39c4.8,2.07,10.14,5.19,15.05,6.74
		c1.3-21.02,2.25-42.12,4.55-63.07c3.1-36.14,9.79-73.09,22.28-107.24c4.93-13.46,10.95-26.48,16.86-39.53
		c-0.28,0.07-0.56,0.14-0.85,0.21c-25,5.43-87.25,0-108.93-14.26l-0.04-1.36c14.37-28.08,57.35-61.04,85.75-75.68
		c13.09-6.75,27.04-11.84,41.02-16.44c-30.98-24.67-53.12-50.66-72.5-85.2c-1.72-2.44-3.02-4.96-4.34-7.63
		c48.52-5.61,98.4-6.37,145.29,9.17c9.74,3.22,18.3,9.11,27.48,12.33c-16.73-34.47-27.78-65.59-31.94-103.89
		c56.8,16.33,111.79,45.95,150.85,91.1c7.84,9.06,16.39,19.77,21.82,30.5c0.41,0.82,0.44,0.95,0.7,1.7
		c61.95-0.79,117.2,19.21,161.89,62.74c24.87,24.24,48.33,55.38,63.06,86.89c-7.76-6.34-16.1-11.99-26.67-10.75
		c-8.23,0.97-14.66,6.04-19.53,12.47c-16.04,21.16-16.83,58.1-13.09,83.36c1.16,7.59,2.65,15.11,4.48,22.57
		c3.44,1.63,7.1,2.63,10.61,4.08c-4.54-17.99-7.57-40.86,2.51-57.67c3.9-6.52,9.92-11.4,17.42-13.07
		c8.26-1.85,16.57,0.67,23.49,5.27c14.55,9.67,23.41,28.38,26.72,45.07c4.1,20.72,0.17,40.32-8.82,59.16
		c7.52,7.65,14.5,15.81,21.93,23.55c2.25-3.21,4.08-6.34,5.8-9.85c1.4-8.21,0.81-16.6,0.47-24.88c-1.2-29.13-5.08-57.76-15.57-85.17
		c-5.29-13.81-12.68-26.16-19.2-39.34c6-7.33,12.87-14.18,19.19-21.26c13.72-15.36,27.37-30.87,40.75-46.52
		c56.47-66.07,110.14-133.59,155.98-207.57l2.72-5.44c22.65,21.75,31.96,54.87,32.57,85.52c0.74,37.38-10.36,74.19-25.08,108.19
		c17.17-5.9,32.36-12.05,47.43-22.4c5.95,59.9-0.07,127.86-39.67,176.26c-5.95,7.28-11.94,13.49-19.33,19.37
		c-3.64,2.9-16.96,10.42-18.57,13.46c4.17-0.56,8.32-1.27,12.44-2.11c4.12-0.84,8.21-1.82,12.27-2.94
		S1597.964,796.089,1601.944,794.709z"/>
	<path style="fill:#012444;" d="M1375.764,839.599c-14.19-13.89-43.08-31.1-61.32-38.76c-4.54-17.99-7.57-40.86,2.51-57.67
		c3.9-6.52,9.92-11.4,17.42-13.07c8.26-1.85,16.57,0.67,23.49,5.27c14.55,9.67,23.41,28.38,26.72,45.07
		C1388.684,801.159,1384.754,820.759,1375.764,839.599z"/>
	<path style="fill:#FEFEFE;" d="M1329.162,750.028c2.08,0.113,4.238,0.175,6.219,0.881c4.483,1.595,8.071,5.347,9.836,9.714
		c0.238,0.585,0.448,1.181,0.627,1.786c0.18,0.605,0.329,1.218,0.449,1.839c0.119,0.62,0.208,1.244,0.267,1.873
		c0.058,0.629,0.085,1.26,0.081,1.891c-0.004,0.631-0.038,1.261-0.104,1.889c-0.066,0.628-0.162,1.252-0.289,1.872
		c-0.127,0.619-0.284,1.23-0.47,1.833c-0.187,0.602-0.403,1.195-0.649,1.778c-2.258,5.25-5.642,7.545-10.739,9.69
		c-3.241,0.036-6.068,0.019-8.997-1.538c-4.312-2.289-7.502-6.453-8.814-11.134c-1.354-4.835-0.935-10.263,1.574-14.659
		C1320.709,753.263,1324.306,751.265,1329.162,750.028z"/>
	<path style="fill:#E58F2D;" d="M1357.484,1433.239c-0.81,3.08-3.04,5.88-5.87,7.34c-5.92,3.05-14.13,0.66-20.04-1.53
		c-6.42-2.38-12.42-5.77-18.35-9.17c3.95,9.52,10.48,23.49,6.49,33.77c-1.01,2.6-2.74,4.77-5.42,5.76
		c-4.11,1.52-9.07,0.01-12.82-1.85c-16.4-8.12-25.64-28.06-30.78-44.61c-2.88-9.25-5.05-19.31-5.33-29.01
		c-17.08-7.6-34.72-12.2-52.61-17.35c9.229-6.44,18.07-13.43,27.16-20.05c34.07,8.3,61.43,16.7,90.29,37.72
		c8.47,6.17,17.42,13.71,23.06,22.67C1356.164,1421.549,1358.944,1427.699,1357.484,1433.239z"/>
	<path style="fill:#E58F2D;" d="M1205.784,1523.979c-1.29,2.44-3.52,4.38-6.18,5.2c-3.61,1.11-7.34-0.11-10.47-1.98
		c-9.52-5.7-16.51-17.25-22.98-26.08c4.93,14.87,10.21,34.83,2.78,49.85c-1.64,3.32-4.27,6.51-7.92,7.64
		c-3.46,1.06-7.12,0.14-10.15-1.67c-11.44-6.81-16.64-26.16-19.31-38.27c-3.66-16.66-5.8-34.36-6.51-51.39
		c-12.77-7.9-51.11-31.63-64.39-34.45c-4.48-3.48-13.4-5.1-15.19-11.24c-0.45-1.55-0.24-2.99,0.47-4.42
		c2.22-4.51,8.67-8.3,13.29-9.79c0.98-0.31,1.98-0.55,3-0.72c1.01-0.17,2.03-0.26,3.06-0.29s2.06,0.01,3.08,0.13
		c1.02,0.11,2.03,0.29,3.03,0.55c5.66,1.44,29.14,13.28,35.77,16.68c32.86,17.52,87.1,42.09,98.6,79.8
		C1207.754,1510.039,1209.134,1517.649,1205.784,1523.979z"/>
	<path style="fill:#34527D;" d="M1419.954,1020.499c8.6,5.38,17,9.78,26.48,13.45c-18.56,12.39-38.64,16.26-60.5,18.19
		c3.43-29.12,8.29-58.11,10.74-87.35c-0.1-6.18,1.15-12.82,1.8-19l7.12,1.14c28.07,5.31,57.15,4.54,84.62-3.77
		c8.31-2.52,16.53-7.54,24.89-9.33c0.38-0.08,0.77-0.15,1.16-0.23c11.23,2.18,22.64,4.09,33.69,7.1
		C1520.444,978.179,1464.004,1004.679,1419.954,1020.499z"/>
	<linearGradient id="SVGID_1_" gradientUnits="userSpaceOnUse" x1="973.7794" y1="410.1866" x2="1091.8636" y2="567.3412">
		<stop  offset="0" style="stop-color:#E99C3B"/>
		<stop  offset="1" style="stop-color:#F8B84A"/>
	</linearGradient>
	<path style="fill:url(#SVGID_1_);" d="M1133.694,539.479c-36.46,1.07-74.35,8.22-107.8,23.25c-12.81-13.39-23.91-26.79-33.63-42.66
		c-16.73-34.47-27.78-65.59-31.94-103.89c56.8,16.33,111.79,45.95,150.85,91.1c7.84,9.06,16.39,19.77,21.82,30.5
		C1133.404,538.599,1133.434,538.729,1133.694,539.479z"/>
	<path style="fill:#4F749E;" d="M1601.944,794.709c3.97-1.39,7.89-2.91,11.76-4.57c-2.99,46.25-29.76,89.85-64.03,120.16
		c-10.17,8.99-21.83,16.29-33.41,23.3c-0.39,0.08-0.78,0.15-1.16,0.23c-8.36,1.79-16.58,6.81-24.89,9.33
		c-27.47,8.31-56.55,9.08-84.62,3.77c2.83-0.09,5.64-0.29,8.45-0.6c2.81-0.3,5.6-0.72,8.37-1.23c2.78-0.52,5.53-1.14,8.26-1.87
		s5.43-1.56,8.09-2.49c12.94-4.44,30-12.6,36.04-25.78c2.06-4.49,2.46-9.5,0.49-14.1c-3.5-8.14-11.68-11.74-19.3-14.96
		c30.31-4.85,63.03-19.68,81.83-44.78c7.38-9.86,11.4-20.56,9.61-33.03c-0.68-0.82-1.35-1.62-2.11-2.36
		c-7.29-7.04-17.86-7.45-27.35-7.55c13.66-10.36,26.1-22.85,35.25-37.42c7.82-12.46,13.88-29.2,10.23-44.02
		c-2.34-9.46-8.02-14.96-16.07-19.76c9.77-15.52,20.61-30.19,29.92-46.04c6.52-11.1,11.33-23.2,18.02-34.11
		c17.17-5.9,32.36-12.05,47.43-22.4c5.95,59.9-0.07,127.86-39.67,176.26c-5.95,7.28-11.94,13.49-19.33,19.37
		c-3.64,2.9-16.96,10.42-18.57,13.46c4.17-0.56,8.32-1.27,12.44-2.11c4.12-0.84,8.21-1.82,12.27-2.94
		S1597.964,796.089,1601.944,794.709z"/>
	<path style="fill:#E58F2D;" d="M1025.894,562.729c-6.07,2.69-12.54,5.12-18.38,8.25c-14.85,8.47-29.7,17.15-43.45,27.36
		c-35.02,26.01-64.56,61.99-84.68,100.59c-0.28,0.07-0.56,0.14-0.85,0.21c-25,5.43-87.25,0-108.93-14.26l-0.04-1.36
		c14.37-28.08,57.35-61.04,85.75-75.68c13.09-6.75,27.04-11.84,41.02-16.44c-30.98-24.67-53.12-50.66-72.5-85.2
		c-1.72-2.44-3.02-4.96-4.34-7.63c48.52-5.61,98.4-6.37,145.29,9.17c9.74,3.22,18.3,9.11,27.48,12.33
		C1001.984,535.939,1013.084,549.339,1025.894,562.729z"/>
	<path style="fill:#EDB775;" d="M916.384,604.139c-30.95,16.46-62.22,32.45-92.87,49.43c-10.79,5.98-44.93,27.48-53.95,29.95
		c14.37-28.08,57.35-61.04,85.75-75.68c13.09-6.75,27.04-11.84,41.02-16.44c6.14,4.39,12.22,8.8,18.98,12.2L916.384,604.139z"/>
	<path style="fill:#EDB775;" d="M1025.894,562.729c-6.07,2.69-12.54,5.12-18.38,8.25c-10.21-2.27-22.13-1.27-32.69-2.34
		c-27.58-2.79-55.45-10.31-80.95-21.12c-12.86-5.45-25.18-11.64-37.02-19.07c-4.58-2.87-29.87-22-30.4-22.17
		c-0.84-0.26-1.75-0.05-2.62-0.08c-1.72-2.44-3.02-4.96-4.34-7.63c48.52-5.61,98.4-6.37,145.29,9.17
		c9.74,3.22,18.3,9.11,27.48,12.33C1001.984,535.939,1013.084,549.339,1025.894,562.729z"/>
	<path style="fill:#EDB775;" d="M1314.344,1271.049c-3.32,5.59-6.81,11.06-10.47,16.41c-3.67,5.36-7.51,10.59-11.52,15.7
		c-4.02,5.1-8.19,10.07-12.52,14.91c-4.34,4.83-8.83,9.52-13.47,14.06c-8.62,8.34-17.93,15.98-26.45,24.41
		c-9.09,6.62-17.93,13.61-27.16,20.05c-22.81,16.1-47.11,29.77-73.81,38.3c-8.51,2.72-25.24,5.33-31.78,8.84
		c-6.63-3.4-30.11-15.24-35.77-16.68c-1-0.26-2.01-0.44-3.03-0.55c-1.02-0.12-2.05-0.16-3.08-0.13s-2.05,0.12-3.06,0.29
		c-1.02,0.17-2.02,0.41-3,0.72c-4.62,1.49-11.07,5.28-13.29,9.79c-0.71,1.43-0.92,2.87-0.47,4.42c1.79,6.14,10.71,7.76,15.19,11.24
		c-6.08,1.34-13.65,0.64-19.85,0.33c-29.46-1.46-60.39-6.59-87.89-17.52c-13.93-5.39-27.45-11.62-41.13-17.6
		c5.19-4.05,22.04-9.05,29.7-13.2c33.82-18.28,58.34-46.16,79.15-77.91l0.32-0.31c10.41,3.65,21.91,5.76,32.74,7.73
		c70.85,12.89,144.34,0.2,211.89-22.41c9.43-3.25,18.67-6.96,27.73-11.14c6.22-2.94,13.44-7.75,20-9.49
		C1313.654,1271.219,1314.004,1271.139,1314.344,1271.049z"/>
	<path style="fill:#23B4AF;" d="M952.914,1415.639c-6.58,16.57-16.58,32.74-26.03,47.84c-26.08,41.69-60.41,89.99-106.96,110.24
		c-10.28,4.48-29.35,10.98-40.38,6.14c-3.11-1.36-5.94-4.27-6.93-7.55c-1.34-4.41,0.59-9.68,2.4-13.7
		c5.66-13.59,16.4-23.9,22.63-36.88c-10.53,8.6-20.87,17.41-32.12,25.09c-30.19,20.62-72.78,40.25-109.96,36.55
		c-6.37-0.64-12.85-2.63-16.98-7.83c-3.22-4.06-3.91-8.9-3.22-13.92c0.41-3.04,1.34-5.61,2.69-8.35
		c9.46-21.74,29.29-39.44,46.38-55.32c1.7-2.16,14.51-6.8,18.25-8.65c11.96-5.91,25.41-12.9,35.69-21.39
		c7.02-2.84,14.89-10.19,20.82-15.04c37.2-30.42,58.08-58.45,84.66-98.17c5.41,4.9,10.96,9.65,16.64,14.24
		c13.25,8.84,35.99,24.96,51.29,29.1C925.464,1404.019,938.984,1410.249,952.914,1415.639z"/>
	<path style="fill:#2EC1AE;" d="M887.984,1405.689c-3.59,11.05-9.28,21.94-14.8,32.15c-2.5,4.62-5.08,9.2-7.74,13.73
		c-2.67,4.52-5.41,9-8.24,13.43c-2.83,4.43-5.74,8.81-8.72,13.13c-2.99,4.32-6.05,8.59-9.19,12.8c-3.15,4.21-6.36,8.37-9.66,12.46
		c-3.29,4.09-6.66,8.13-10.1,12.1c-3.44,3.97-6.95,7.88-10.53,11.72c-3.58,3.85-7.23,7.63-10.95,11.34
		c-6.26,6.35-14.01,15.28-21.86,19.46c-0.21,0.11-0.42,0.21-0.63,0.32l-0.55,0.28c5.66-13.59,16.4-23.9,22.63-36.88
		c3.09-4.57,7.74-8.71,11.48-12.77c6.81-7.45,13.53-14.98,20.15-22.6C850.754,1461.529,871.204,1433.929,887.984,1405.689z"/>
	<path style="fill:#2EC1AE;" d="M860.494,1368.939c-6.14,13.71-12.1,27.41-20.27,40.07c-43.35,67.2-122.97,113.99-196.06,141.94
		c-2.03,0.78-4.09,1.5-6.11,2.32c9.46-21.74,29.29-39.44,46.38-55.32c1.7-2.16,14.51-6.8,18.25-8.65
		c11.96-5.91,25.41-12.9,35.69-21.39c7.02-2.84,14.89-10.19,20.82-15.04c37.2-30.42,58.08-58.45,84.66-98.17
		C849.264,1359.599,854.814,1364.349,860.494,1368.939z"/>
	<path style="fill:#71D4ED;" d="M1595.324,616.829c-6.69,10.91-11.5,23.01-18.02,34.11c-9.31,15.85-20.15,30.52-29.92,46.04
		c8.05,4.8,13.73,10.3,16.07,19.76c3.65,14.82-2.41,31.56-10.23,44.02c-9.15,14.57-21.59,27.06-35.25,37.42
		c9.49,0.1,20.06,0.51,27.35,7.55c0.76,0.74,1.43,1.54,2.11,2.36c1.79,12.47-2.23,23.17-9.61,33.03
		c-18.8,25.1-51.52,39.93-81.83,44.78c7.62,3.22,15.8,6.82,19.3,14.96c1.97,4.6,1.57,9.61-0.49,14.1
		c-6.04,13.18-23.1,21.34-36.04,25.78c-2.66,0.93-5.36,1.76-8.09,2.49s-5.48,1.35-8.26,1.87c-2.77,0.51-5.56,0.93-8.37,1.23
		c-2.811,0.31-5.62,0.51-8.45,0.6l-7.12-1.14c1.95-13.2,3.03-26.77,3.98-40.08c0.49-6.77-0.16-15.68,1.79-21.96
		c0.1-2.9,0.22-5.58,0.89-8.41c0.05-0.83-0.14-1.4-0.36-2.19c-2.3-3.38-4.66-6.71-7.08-10c2.25-3.21,4.08-6.34,5.8-9.85
		c1.4-8.21,0.81-16.6,0.47-24.88c-1.2-29.13-5.08-57.76-15.57-85.17c-5.29-13.81-12.68-26.16-19.2-39.34
		c6-7.33,12.87-14.18,19.19-21.26c13.72-15.36,27.37-30.87,40.75-46.52c56.47-66.07,110.14-133.59,155.98-207.57l2.72-5.44
		c22.65,21.75,31.96,54.87,32.57,85.52C1621.144,546.019,1610.044,582.829,1595.324,616.829z"/>
	<path style="fill:#23B4AF;" d="M1404.774,873.149c-2.3-3.38-4.66-6.71-7.08-10c2.25-3.21,4.08-6.34,5.8-9.85
		C1405.484,857.569,1405.944,868.489,1404.774,873.149z"/>
	<path style="fill:#44C1E4;" d="M1595.324,616.829c-6.69,10.91-11.5,23.01-18.02,34.11c-9.31,15.85-20.15,30.52-29.92,46.04
		c8.05,4.8,13.73,10.3,16.07,19.76c3.65,14.82-2.41,31.56-10.23,44.02c-9.15,14.57-21.59,27.06-35.25,37.42
		c9.49,0.1,20.06,0.51,27.35,7.55c0.76,0.74,1.43,1.54,2.11,2.36c1.79,12.47-2.23,23.17-9.61,33.03
		c-18.8,25.1-51.52,39.93-81.83,44.78c7.62,3.22,15.8,6.82,19.3,14.96c1.97,4.6,1.57,9.61-0.49,14.1
		c-6.04,13.18-23.1,21.34-36.04,25.78c-2.66,0.93-5.36,1.76-8.09,2.49s-5.48,1.35-8.26,1.87c-2.77,0.51-5.56,0.93-8.37,1.23
		c-2.811,0.31-5.62,0.51-8.45,0.6l-7.12-1.14c1.95-13.2,3.03-26.77,3.98-40.08c0.49-6.77-0.16-15.68,1.79-21.96
		c29.29,0.91,61.51-9.99,84.79-27.76c7.25-5.53,15.64-13.87,16.6-23.36c0.41-3.98-0.77-7.74-3.33-10.8
		c-9.59-11.5-27.97-9.41-41.06-10.95l-0.67-0.09c33.67-16.24,67.81-34.24,82.38-71.12c2.8-7.09,4.57-15.25,1.23-22.48
		c-2.61-5.62-6.35-7.93-12.01-9.82c-1.89-0.63-3.71-1.2-5.72-0.87c-16.84,2.77-56.91,27.25-74.17,35.87
		c11.35-11.73,22.27-23.78,32.16-36.78c51.3-67.42,80.64-149.32,95.17-232.17c1.97-11.24,6.9-34.55,5.5-44.86l2.72-5.44
		c22.65,21.75,31.96,54.87,32.57,85.52C1621.144,546.019,1610.044,582.829,1595.324,616.829z"/>
	<path style="fill:#23B4AF;" d="M1020.634,1306.929c-20.81,31.75-45.33,59.63-79.15,77.91c-7.66,4.15-24.51,9.15-29.7,13.2
		c-15.3-4.14-38.04-20.26-51.29-29.1c-5.68-4.59-11.23-9.34-16.64-14.24c-26.58,39.72-47.46,67.75-84.66,98.17
		c-5.93,4.85-13.8,12.2-20.82,15.04c-10.28,8.49-23.73,15.48-35.69,21.39c-3.74,1.85-16.55,6.49-18.25,8.65
		c-24.59,8.45-52.12,13.48-78.08,9.7c-8.62-1.25-20.54-3.59-25.79-11.21c-1.97-2.85-2.93-6.35-2.3-9.79
		c2.92-16.02,37.82-32.16,50.7-40.74l0.59-1.33c-17.73,4.63-40.82,6.76-59.07,3.67c-7.61,0.13-16.85-2.84-23.82-5.8
		c-8.25-3.51-18.25-9.58-21.53-18.31c-1.51-4.05-1.08-8.21,0.84-12.04c6.58-13.09,24.48-21.75,37.24-27.21
		c38.32-16.45,82.12-22.7,122.17-34.65c27.69-8.26,54.5-17.88,81.45-28.29c12.77-4.93,25.33-10.55,38.22-15.13
		c-13.15-21.85-19.51-46.72-24.72-71.4c24.18-4.73,45.55-11.13,67.45-22.63c-3.69,13.86-8.24,27.55-12.46,41.27
		c21.55-2.7,41.88-9.61,61.16-19.53c41.82-21.5,87.48-64.26,102.21-109.76c2.61-5.58,6.84-12.28,6.19-18.55l1.7-2.85
		c8.22,14.63,2.49,51.72-1.84,67.32c-10.29,37.03-32.55,72.15-66.56,91.22c14.82,14.28,32.75,24.96,51.42,33.48
		C995.484,1298.079,1018.024,1303.979,1020.634,1306.929z"/>
	<path style="fill:#179D9D;" d="M793.154,1341.369c-32.23,40.9-82.62,72.45-130.5,91.97c-10.5,4.28-21.62,6.75-32.13,10.85
		l-0.97,0.39c-17.73,4.63-40.82,6.76-59.07,3.67c1.3-1.65,2.33-2.39,4.39-2.96c9.58-2.68,19.8-3.54,29.56-5.63
		c16.48-3.54,32.25-8.84,47.94-14.97c29.66-11.58,61.23-25.99,87.88-43.45C758.844,1369.059,775.824,1355.209,793.154,1341.369z"/>
	<path style="fill:#179D9D;" d="M1020.634,1306.929c-20.81,31.75-45.33,59.63-79.15,77.91c-7.66,4.15-24.51,9.15-29.7,13.2
		c-15.3-4.14-38.04-20.26-51.29-29.1c-5.68-4.59-11.23-9.34-16.64-14.24c-26.58,39.72-47.46,67.75-84.66,98.17
		c-5.93,4.85-13.8,12.2-20.82,15.04c0.13-1.5,15.81-12.41,18.04-14.14c36.31-28.14,60.43-60.73,85.91-98.33
		c-0.12-2.17-2.31-3.5-3.88-4.97c-6.61,9.14-12,19.19-18.56,28.41c-2.67,3.74-5.43,7.41-8.27,11.02c-2.85,3.62-5.77,7.16-8.77,10.64
		c-3.01,3.48-6.09,6.89-9.25,10.23c-3.16,3.34-6.39,6.6-9.7,9.79c-3.31,3.19-6.69,6.31-10.14,9.34c-3.45,3.04-6.97,5.99-10.56,8.87
		c-3.58,2.87-7.23,5.67-10.95,8.38c-3.71,2.71-7.48,5.33-11.32,7.86c-33.81,21.98-71.37,39.67-111.46,46.3
		c-6.14,1.02-13.65,2.9-19.82,1.58c12.5-0.79,24.73-3.36,36.84-6.44c1.95-0.51,3.9-1.04,5.84-1.59c1.94-0.54,3.88-1.11,5.81-1.7
		c1.93-0.58,3.85-1.19,5.77-1.81c1.92-0.63,3.83-1.27,5.74-1.93c1.91-0.66,3.81-1.34,5.7-2.04c1.89-0.69,3.78-1.41,5.66-2.15
		c1.88-0.73,3.75-1.48,5.61-2.25c1.87-0.78,3.72-1.57,5.57-2.37c1.85-0.81,3.69-1.64,5.53-2.48c1.83-0.84,3.65-1.7,5.47-2.58
		c1.81-0.88,3.62-1.78,5.42-2.69c1.8-0.92,3.59-1.85,5.37-2.8c1.78-0.95,3.55-1.91,5.31-2.9c1.76-0.98,3.51-1.98,5.26-3
		c1.74-1.02,3.47-2.05,5.19-3.11c1.72-1.05,3.43-2.12,5.13-3.2c1.7-1.09,3.4-2.19,5.07-3.31c1.68-1.11,3.35-2.25,5.01-3.4
		c1.66-1.15,3.3-2.32,4.94-3.5c1.63-1.18,3.25-2.38,4.86-3.6c1.62-1.21,3.21-2.44,4.8-3.68c1.59-1.25,3.16-2.51,4.73-3.79
		c1.56-1.27,3.11-2.57,4.65-3.87c1.53-1.31,3.06-2.63,4.57-3.97c1.51-1.33,3.01-2.68,4.49-4.05c1.49-1.37,2.96-2.75,4.42-4.14
		c1.46-1.39,2.9-2.8,4.33-4.22c1.43-1.43,2.85-2.86,4.25-4.31c1.41-1.45,2.79-2.92,4.17-4.39c1.37-1.48,2.73-2.97,4.08-4.48
		c1.34-1.5,2.67-3.02,3.99-4.55c1.31-1.53,2.61-3.07,3.9-4.62c11.55-14.14,21.35-29.54,30.68-45.19
		c-9.78-7.86-17.3-18.06-23.99-28.58c-2.82-4.44-5.43-9.31-8.76-13.38c-13.15-21.85-19.51-46.72-24.72-71.4
		c24.18-4.73,45.55-11.13,67.45-22.63c-3.69,13.86-8.24,27.55-12.46,41.27c21.55-2.7,41.88-9.61,61.16-19.53
		c41.82-21.5,87.48-64.26,102.21-109.76c2.61-5.58,6.84-12.28,6.19-18.55l1.7-2.85c8.22,14.63,2.49,51.72-1.84,67.32
		c-10.29,37.03-32.55,72.15-66.56,91.22c14.82,14.28,32.75,24.96,51.42,33.48C995.484,1298.079,1018.024,1303.979,1020.634,1306.929
		z"/>
	<path style="fill:#4F749E;" d="M998.694,1124.769c-14.73,45.5-60.39,88.26-102.21,109.76c-19.28,9.92-39.61,16.83-61.16,19.53
		c4.22-13.72,8.77-27.41,12.46-41.27c-21.9,11.5-43.27,17.9-67.45,22.63c-29.66,6.1-58-0.16-85.83-10.32
		c10.33-10.51,21.38-20.4,31.85-30.78c-13.33,1.07-26.51,1.68-39.88,0.69c-48.27-3.56-96.77-22.56-136.95-48.94
		c12.85-5.82,24.72-13.18,37.33-19.41c-18.24-6.19-33.36-9.28-51.15-18.07c-2.04-0.99-4.06-2.01-6.07-3.07
		c-2.01-1.06-4-2.15-5.97-3.27c-1.97-1.12-3.93-2.27-5.86-3.46c-1.94-1.18-3.85-2.39-5.75-3.64c-1.9-1.25-3.77-2.52-5.63-3.83
		c-1.85-1.3-3.69-2.64-5.5-4c-1.81-1.37-3.6-2.76-5.37-4.19c-1.77-1.42-3.51-2.87-5.23-4.35c-1.72-1.48-3.42-2.98-5.09-4.52
		c-1.67-1.53-3.32-3.09-4.94-4.68c-1.62-1.59-3.22-3.2-4.79-4.83c-1.57-1.64-3.11-3.31-4.63-4.99c-1.51-1.69-3-3.4-4.46-5.14
		c-1.46-1.74-2.9-3.49-4.3-5.28c-1.41-1.78-2.78-3.58-4.13-5.41c-1.34-1.82-2.66-3.67-3.95-5.54c-6.01-8.74-11.86-18.32-15.27-28.41
		c15.5-1.35,31.3-1.36,46.84-0.89c-18.25-9.81-34.71-20.93-49.8-35.16c-34.97-32.94-64.49-82.09-74.17-129.29
		c-2.3-11.22-2.85-22.19-3.16-33.59c20.36,11.18,40.54,20.98,62.98,27.36c40.95,45.7,79.52,71.31,137.54,91.41
		c-0.09,0.06-0.18,0.12-0.26,0.18c-0.2,0.13-0.4,0.26-0.6,0.41c-8.52,5.81-15.02,12.3-17.32,22.93
		c-2.44,11.29,1.16,23.14,7.52,32.49c20.51,30.14,68.38,48.79,103.3,55.18c5.07,0.93,15.6,1.15,19.61,3.88
		c-2.54,0.23-4.99,0.51-7.49,1.03c-2.22,0.44-4.25,0.78-5.76,2.63c-1.37,1.69-1.62,3.83-1.11,5.89
		c2.16,8.65,15.07,16.52,22.35,20.54c37.46,20.67,81.19,14.93,120.54,3.31c5.68-1.67,11.31-3.46,17-5.06
		c-9.24,10.79-32.71,26.68-37.21,37.62c8.18,13.47,24.05,19.31,38.75,22.94c27.96,6.9,49.16,2.81,76.17-4.82
		c-4.75,8.24-8.84,16.65-12.15,25.57c11.03,3.71,24.27,4.05,35.75,2.83c34.93-3.69,65.23-24.29,86.8-51.15
		C1005.534,1112.489,1001.304,1119.189,998.694,1124.769z"/>
	<path style="fill:#44C1E4;" d="M643.486,1045.462c6.755-0.182,13.518,0.194,20.268,0.462c-2.222,0.435-4.251,0.771-5.76,2.629
		c-1.37,1.689-1.623,3.829-1.109,5.89c2.154,8.648,15.064,16.517,22.347,20.536c37.458,20.67,81.191,14.926,120.545,3.313
		c5.673-1.674,11.307-3.458,17.001-5.062c-9.248,10.789-32.718,26.676-37.217,37.615c8.179,13.475,24.055,19.315,38.752,22.943
		c27.956,6.901,49.155,2.815,76.166-4.817c-4.75,8.239-8.832,16.648-12.145,25.567c-1.817-0.795-3.679-2.353-5.337-3.485
		c1.669-3.643,3.544-7.221,5.323-10.813c-16.984,6.959-33.886,12.728-52.596,11.19c-18.586-1.528-54.201-9-66.427-24.435
		c-8.282-10.454,8.973-15.07,9.659-22.732c-6.74-0.241-14.907,2.834-21.717,4.1c-11.505,2.141-23.634,3.574-35.343,3.665
		c-24.632,0.19-67.967-3.699-85.798-22.03c-3.545-3.646-5.869-8.136-5.737-13.309
		C624.655,1065.17,635.539,1052.969,643.486,1045.462z"/>
	<path style="fill:#34527D;" d="M998.694,1124.769c-14.73,45.5-60.39,88.26-102.21,109.76c-19.28,9.92-39.61,16.83-61.16,19.53
		c4.22-13.72,8.77-27.41,12.46-41.27c-21.9,11.5-43.27,17.9-67.45,22.63c-29.66,6.1-58-0.16-85.83-10.32
		c10.33-10.51,21.38-20.4,31.85-30.78c-13.33,1.07-26.51,1.68-39.88,0.69c-48.27-3.56-96.77-22.56-136.95-48.94
		c12.85-5.82,24.72-13.18,37.33-19.41c11.68,1.36,23.25,4.66,35.01,6.16c45.58,5.8,88.67,2.09,132.78-10.51
		c-5.58,7.41-11.68,14.91-15.93,23.18c-2.56,4.99-5.02,12.03-2.97,17.61c1.73,4.67,8.06,7.38,12.37,9.14
		c22.64,9.22,68.16,1.18,91.91-5.79c10.67-3.13,20.8-7.26,31-11.66c-8.92,13.83-19.62,32.6-20.77,49.39c-0.21,3.16,0.18,6.67,2.56,9
		c2.57,2.51,6.52,2.6,9.86,2.2c33-4.04,92.98-45.3,117.65-69.06C987.204,1139.699,992.954,1132.359,998.694,1124.769z"/>
	<path style="fill:#23B4AF;" d="M1396.674,964.789c-2.45,29.24-7.31,58.23-10.74,87.35c-6.19,38.35-12.74,80.83-25.33,117.57
		c-9.98,29.8-21.67,59.02-37.19,86.4c-2.79,4.9-5.57,10.58-9.07,14.94c-0.34,0.09-0.69,0.17-1.03,0.26
		c-6.56,1.74-13.78,6.55-20,9.49c-9.06,4.18-18.3,7.89-27.73,11.14c-67.55,22.61-141.04,35.3-211.89,22.41
		c-10.83-1.97-22.33-4.08-32.74-7.73l-0.32,0.31c-2.61-2.95-25.15-8.85-31.03-11.54c-18.67-8.52-36.6-19.2-51.42-33.48
		c34.01-19.07,56.27-54.19,66.56-91.22c4.33-15.6,10.06-52.69,1.84-67.32l3.43-6.42c-0.58-7.22-2.29-14.14-4.66-20.99
		c-24.31-70.34-104.91-135.69-169.66-167.19c1.3-21.02,2.25-42.12,4.55-63.07c0.35,0.21,0.71,0.39,1.05,0.61
		c4.65,2.85,21.16,26.26,26.03,32.24c6.49,7.98,13.31,15.75,20.07,23.51c23.62,27.12,49.41,52.17,74.25,78.14
		c12.93,13.69,26.06,27.21,39.37,40.54c8.45,8.54,16.73,17.43,26.16,24.9c59.83,47.36,141.75,60.1,215.34,46.08
		c46.95-8.95,99.42-33.15,126.83-73.88c5.97-8.85,11.22-18.1,15.78-27.75C1388.464,983.019,1391.854,970.619,1396.674,964.789z"/>
	<path style="fill:#F7DBA1;" d="M1360.604,1169.709c-9.98,29.8-21.67,59.02-37.19,86.4c-2.79,4.9-5.57,10.58-9.07,14.94
		c-0.34,0.09-0.69,0.17-1.03,0.26c-6.56,1.74-13.78,6.55-20,9.49c-9.06,4.18-18.3,7.89-27.73,11.14
		c-67.55,22.61-141.04,35.3-211.89,22.41c-10.83-1.97-22.33-4.08-32.74-7.73c32.07-51.3,45.53-100.07,55.37-159.29
		c17.63,22.33,36.08,44.11,54.28,65.97c19.77-21.65,36.8-45.95,56.95-67.25c15.82,23.33,30.72,47.32,46.16,70.9
		c16.97-27.47,34.71-54.4,51.19-82.2c13.08,16.94,24.4,35.98,36.56,53.64c7.02-14.81,15.88-29.17,23.85-43.5
		C1350.624,1153.029,1354.974,1161.789,1360.604,1169.709z"/>
	<path style="fill:#71D4ED;" d="M1010.014,1096.949l-3.43,6.42l-1.7,2.85c-21.57,26.86-51.87,47.46-86.8,51.15
		c-11.48,1.22-24.72,0.88-35.75-2.83c3.31-8.92,7.4-17.33,12.15-25.57c-27.01,7.63-48.21,11.72-76.17,4.82
		c-14.7-3.63-30.57-9.47-38.75-22.94c4.5-10.94,27.97-26.83,37.21-37.62c-5.69,1.6-11.32,3.39-17,5.06
		c-39.35,11.62-83.08,17.36-120.54-3.31c-7.28-4.02-20.19-11.89-22.35-20.54c-0.51-2.06-0.26-4.2,1.11-5.89
		c1.51-1.85,3.54-2.19,5.76-2.63c2.5-0.52,4.95-0.8,7.49-1.03c-4.01-2.73-14.54-2.95-19.61-3.88
		c-34.92-6.39-82.79-25.04-103.3-55.18c-6.36-9.35-9.96-21.2-7.52-32.49c2.3-10.63,8.8-17.12,17.32-22.93
		c0.2-0.15,0.4-0.28,0.6-0.41c0.08-0.06,0.17-0.12,0.26-0.18c-58.02-20.1-96.59-45.71-137.54-91.41
		c-7.91-11.68-17.92-21.93-25.81-33.69c-37.66-56.1-48.07-119.7-34.96-185.39c8.96,9.98,18.25,19.62,27.89,28.95
		c87.78,84.15,182.01,149.4,293.58,198.27c31.15,13.64,63.41,25.01,95.18,37.09c14.61,5.56,28.96,12.19,43.31,18.39
		c4.8,2.07,10.14,5.19,15.05,6.74c64.75,31.5,145.35,96.85,169.66,167.19C1007.724,1082.809,1009.434,1089.729,1010.014,1096.949z"
		/>
	<path style="fill:#44C1E4;" d="M558.734,929.999c-0.2,0.13-0.4,0.26-0.6,0.41c-0.04-0.23-0.06-0.46-0.09-0.69
		C558.274,929.809,558.504,929.899,558.734,929.999z"/>
	<path style="fill:#44C1E4;" d="M685.724,949.309c-37.05,0.32-92.23-5.44-126.99-19.31c0.08-0.06,0.17-0.12,0.26-0.18
		c-58.02-20.1-96.59-45.71-137.54-91.41c-7.91-11.68-17.92-21.93-25.81-33.69c-37.66-56.1-48.07-119.7-34.96-185.39
		c8.96,9.98,18.25,19.62,27.89,28.95c-0.91,7.67,5.29,18.13,8.44,25c17.9,39.06,39.15,72.63,65.7,106.29
		c48.79,61.86,116.19,114.62,185.36,151.82C660.394,938.009,673.194,943.179,685.724,949.309z"/>
	<path style="fill:#44C1E4;" d="M770.644,1014.729c-25.49,13.84-54.22,22.1-82.57,27.62c-5.09,0.98-11.69,2.77-16.83,2.54
		c-4.01-2.73-14.54-2.95-19.61-3.88c-34.92-6.39-82.79-25.04-103.3-55.18c-6.36-9.35-9.96-21.2-7.52-32.49
		c2.3-10.63,8.8-17.12,17.32-22.93c2.47,20.14,11.78,37.72,27.8,50.39c33.33,26.35,90.66,35.05,132.05,35.53
		C735.614,1016.529,753.074,1014.739,770.644,1014.729z"/>
	<path style="fill:#2EC1AE;" d="M1405.134,875.339c-0.67,2.83-0.79,5.51-0.89,8.41c-1.95,6.28-1.3,15.19-1.79,21.96
		c-0.95,13.31-2.03,26.88-3.98,40.08c-0.65,6.18-1.9,12.82-1.8,19c-4.82,5.83-8.21,18.23-11.55,25.3
		c-4.56,9.65-9.81,18.9-15.78,27.75c-27.41,40.73-79.88,64.93-126.83,73.88c-73.59,14.02-155.51,1.28-215.34-46.08
		c-9.43-7.47-17.71-16.36-26.16-24.9c-13.31-13.33-26.44-26.85-39.37-40.54c-24.84-25.97-50.63-51.02-74.25-78.14
		c-6.76-7.76-13.58-15.53-20.07-23.51c-4.87-5.98-21.38-29.39-26.03-32.24c-0.34-0.22-0.7-0.4-1.05-0.61
		c3.1-36.14,9.79-73.09,22.28-107.24c4.93-13.46,10.95-26.48,16.86-39.53c20.12-38.6,49.66-74.58,84.68-100.59
		c13.75-10.21,28.6-18.89,43.45-27.36c5.84-3.13,12.31-5.56,18.38-8.25c33.45-15.03,71.34-22.18,107.8-23.25
		c61.95-0.79,117.2,19.21,161.89,62.74c24.87,24.24,48.33,55.38,63.06,86.89c-7.76-6.34-16.1-11.99-26.67-10.75
		c-8.23,0.97-14.66,6.04-19.53,12.47c-16.04,21.16-16.83,58.1-13.09,83.36c1.16,7.59,2.65,15.11,4.48,22.57
		c3.44,1.63,7.1,2.63,10.61,4.08c18.24,7.66,47.13,24.87,61.32,38.76c7.52,7.65,14.5,15.81,21.93,23.55c2.42,3.29,4.78,6.62,7.08,10
		C1404.994,873.939,1405.184,874.509,1405.134,875.339z"/>
	<path style="fill:#FEFEFE;" d="M1347.204,877.057c15.706-4.673,34.266-4.04,50.296-1.786
		c-13.68,19.742-29.403,34.939-53.657,40.074C1347.053,902.464,1347.386,890.24,1347.204,877.057z"/>
	<path style="fill:#179D9D;" d="M1217.393,916.801c16.712,26.037,45.911,58.512,77.462,65.509c8.3,1.842,16.779,1.571,24.116-3.163
		c2.319-1.495,4.138-3.485,5.948-5.541c0.174,0.981,0.345,1.86,0.177,2.859c-1.185,7.049-7.043,14.589-13.135,18.12
		c-8.014,4.646-18.246,4.6-26.95,2.044c-29.503-8.662-49.418-38.9-63.11-64.556C1219.525,927.624,1215.84,921.854,1217.393,916.801z
		"/>
	<path style="fill:#E78473;" d="M1308.738,889.378c3.334-2.607,8.687-3.782,12.715-5.136c4.847,23.544,13.079,64.026,4.43,86.824
		c-0.321,0.848-0.633,1.696-0.965,2.54c-1.81,2.055-3.629,4.045-5.948,5.541c-7.337,4.734-15.815,5.005-24.116,3.163
		c-31.551-6.997-60.75-39.472-77.462-65.509c-1.146-2.962-3.184-5.934-4.65-8.784c-3.179-6.182-5.903-12.383-8.208-18.94
		c7.562,2.369,15.258,4.56,22.72,7.211C1254.41,901.989,1282.802,898.484,1308.738,889.378z"/>
	<path style="fill:#C73C75;" d="M1273.163,950.822c0.027-3.491-0.211-7.076,1.32-10.303c2.422-5.106,6.59-8.725,11.905-10.574
		c6.46-2.247,16.981-1.624,22.8,2.415c2.371,1.646,4.586,4.328,7.201,5.471c0.217,0.095,0.449,0.151,0.674,0.227
		c1.702,6.293,1.377,20.105-1.782,25.854c-1.377,2.506-3.531,4.329-6.343,4.99c-7.706,1.813-17.639-4.352-23.818-8.48
		C1280.848,957.566,1276.945,954.292,1273.163,950.822z"/>
	<path style="fill:#411857;" d="M1227.255,896.289c27.155,5.7,55.547,2.195,81.483-6.911c1.108,5.836,2.095,11.727,3.548,17.487
		c2.174,10.012,4.363,20.923,4.778,31.192c-0.225-0.076-0.458-0.131-0.674-0.227c-2.616-1.143-4.831-3.825-7.201-5.471
		c-5.819-4.038-16.34-4.661-22.8-2.415c-5.315,1.849-9.483,5.468-11.905,10.574c-1.531,3.227-1.293,6.812-1.32,10.303
		c-5.815-5.387-11.753-10.668-17.041-16.582C1245.29,922.223,1235.784,910.083,1227.255,896.289z"/>
	<path style="fill:#80286C;" d="M1312.286,906.865c2.174,10.012,4.363,20.923,4.778,31.192c-0.225-0.076-0.458-0.131-0.674-0.227
		c-2.616-1.143-4.831-3.825-7.201-5.471c-5.819-4.038-16.34-4.661-22.8-2.415c-5.315,1.849-9.483,5.468-11.905,10.574
		c-1.531,3.227-1.293,6.812-1.32,10.303c-5.815-5.387-11.753-10.668-17.041-16.582c3.482-7.418,6.729-14.403,13.614-19.342
		c12.148-8.715,27.577-8.705,41.683-6.657L1312.286,906.865z"/>
	
		<linearGradient id="SVGID_00000039847310892814201780000011540018628283598720_" gradientUnits="userSpaceOnUse" x1="1277.2004" y1="788.5579" x2="1310.9103" y2="902.2076">
		<stop  offset="0" style="stop-color:#E79725"/>
		<stop  offset="1" style="stop-color:#F9B43A"/>
	</linearGradient>
	<path style="fill:url(#SVGID_00000039847310892814201780000011540018628283598720_);" d="M1405.134,875.339
		c-2.5,0.29-5.12,0.04-7.63-0.07c-16.03-2.25-34.59-2.89-50.3,1.79c-8.48,2.39-17.15,5.37-25.75,7.18
		c-4.03,1.36-9.38,2.53-12.72,5.14c-25.93,9.1-54.32,12.61-81.479,6.91c-7.46-2.65-15.16-4.84-22.72-7.21
		c-3.19-13.74,0.52-30.62,5.29-43.58c7.72-21.02,23.31-41.99,44.12-51.42c16.83-7.62,33.29-3.54,49.89,2.68
		c3.44,1.63,7.1,2.63,10.61,4.08c18.24,7.66,47.13,24.87,61.32,38.76c7.52,7.65,14.5,15.81,21.93,23.55c2.42,3.29,4.78,6.62,7.08,10
		C1404.994,873.939,1405.184,874.509,1405.134,875.339z"/>
	<path style="fill:#FEFEFE;" d="M1047.788,718.052c0.103-0.016,0.204-0.037,0.308-0.046c0.928-0.073,1.858-0.135,2.788-0.185
		c0.93-0.05,1.861-0.089,2.792-0.115c0.931-0.028,1.863-0.044,2.794-0.049c0.932-0.004,1.864,0.004,2.795,0.023
		c0.931,0.019,1.862,0.049,2.792,0.091c0.931,0.041,1.862,0.094,2.791,0.16c0.929,0.065,1.858,0.141,2.785,0.228
		c0.927,0.088,1.854,0.187,2.778,0.298c0.925,0.11,1.848,0.232,2.771,0.366c0.922,0.133,1.842,0.278,2.76,0.433
		c0.919,0.157,1.835,0.324,2.75,0.503c0.914,0.179,1.826,0.369,2.735,0.57c0.909,0.201,1.817,0.414,2.721,0.637
		c0.905,0.223,1.806,0.458,2.704,0.704c0.899,0.246,1.795,0.503,2.687,0.771c0.892,0.268,1.781,0.547,2.666,0.838
		c0.886,0.29,1.768,0.591,2.646,0.902c0.877,0.312,1.751,0.634,2.621,0.968c0.87,0.333,1.735,0.678,2.597,1.033
		c0.861,0.354,1.718,0.72,2.57,1.096c0.852,0.375,1.7,0.762,2.543,1.159s1.681,0.804,2.513,1.222
		c0.832,0.418,1.66,0.846,2.482,1.284c0.823,0.438,1.64,0.886,2.45,1.344c0.812,0.458,1.617,0.927,2.416,1.406
		c0.799,0.478,1.593,0.966,2.381,1.464c0.788,0.498,1.569,1.005,2.343,1.522c0.775,0.517,1.544,1.043,2.305,1.579
		c0.762,0.536,1.518,1.081,2.266,1.636c0.748,0.555,1.489,1.119,2.224,1.692s1.462,1.155,2.182,1.746
		c0.72,0.591,1.433,1.191,2.138,1.799c26.727,22.783,52.293,68.808,54.747,103.999c1.998,28.666-11.605,57.28-30.108,78.444
		c-18.706,21.395-45.227,36.318-73.84,38.278l-1.199,0.131c-31.785,3.234-64.309-9.351-88.623-29.299
		c-0.868-0.7-1.727-1.411-2.577-2.133c-0.849-0.722-1.691-1.454-2.523-2.197c-0.832-0.742-1.654-1.495-2.468-2.258
		c-0.813-0.762-1.617-1.535-2.412-2.318c-0.794-0.782-1.579-1.574-2.355-2.376c-0.774-0.801-1.539-1.612-2.293-2.433
		c-0.755-0.821-1.501-1.651-2.235-2.49c-0.734-0.839-1.457-1.687-2.171-2.543c-0.714-0.857-1.416-1.723-2.108-2.597
		c-0.692-0.874-1.373-1.757-2.044-2.648c-0.67-0.891-1.329-1.79-1.977-2.697c-0.648-0.907-1.285-1.823-1.912-2.747
		c-0.625-0.923-1.239-1.853-1.842-2.791c-0.602-0.938-1.194-1.883-1.773-2.837c-0.579-0.953-1.146-1.913-1.702-2.879
		c-0.556-0.966-1.099-1.94-1.631-2.921c-0.531-0.98-1.05-1.966-1.558-2.959c-0.508-0.993-1.003-1.992-1.485-2.998
		c-0.482-1.005-0.952-2.016-1.41-3.033c-0.458-1.017-0.903-2.039-1.336-3.068c-0.432-1.027-0.852-2.06-1.259-3.099
		c-0.407-1.038-0.801-2.081-1.182-3.129c-0.381-1.047-0.749-2.1-1.105-3.157c-0.356-1.057-0.698-2.118-1.026-3.183
		c-0.33-1.065-0.646-2.135-0.948-3.209c-0.303-1.073-0.592-2.15-0.868-3.23c-0.277-1.081-0.539-2.164-0.788-3.25
		c-0.25-1.087-0.486-2.177-0.708-3.27c-0.222-1.092-0.431-2.187-0.626-3.286c-0.196-1.098-0.378-2.198-0.546-3.3
		c-0.168-1.102-0.323-2.206-0.465-3.313c-0.141-1.106-0.268-2.214-0.382-3.323c-0.088-0.98-0.165-1.96-0.23-2.941
		c-0.064-0.982-0.115-1.964-0.155-2.946c-0.04-0.983-0.068-1.966-0.083-2.949c-0.015-0.984-0.018-1.967-0.009-2.951
		c0.009-0.984,0.03-1.967,0.064-2.949c0.033-0.983,0.079-1.965,0.137-2.948c0.058-0.982,0.128-1.962,0.211-2.942
		c0.083-0.98,0.177-1.958,0.284-2.936c0.107-0.978,0.227-1.954,0.358-2.929c0.13-0.974,0.273-1.947,0.429-2.918
		c0.155-0.971,0.322-1.94,0.502-2.908c0.18-0.966,0.371-1.931,0.574-2.894c0.203-0.963,0.419-1.922,0.646-2.878
		c0.227-0.957,0.466-1.911,0.717-2.862c0.251-0.951,0.514-1.899,0.788-2.844c0.275-0.944,0.561-1.884,0.858-2.822
		c0.298-0.937,0.608-1.87,0.928-2.8c0.321-0.929,0.654-1.855,0.998-2.777c0.345-0.921,0.701-1.838,1.068-2.751
		c0.367-0.912,0.745-1.82,1.135-2.723c0.39-0.904,0.79-1.802,1.202-2.694c0.411-0.893,0.834-1.781,1.269-2.664
		c0.433-0.883,0.878-1.76,1.334-2.631c0.456-0.871,0.923-1.737,1.4-2.597c0.477-0.86,0.965-1.714,1.463-2.562
		c0.499-0.848,1.008-1.689,1.528-2.524c0.519-0.835,1.048-1.664,1.588-2.486c0.541-0.822,1.091-1.637,1.651-2.445
		c0.561-0.809,1.131-1.61,1.711-2.405c0.581-0.794,1.171-1.58,1.77-2.359c0.6-0.78,1.209-1.552,1.829-2.316
		c0.619-0.764,1.247-1.521,1.884-2.269C989.869,733.622,1017.177,720.881,1047.788,718.052z"/>
	<path style="fill:#012444;" d="M1081.523,781.429c12.448-1.555,25.172,2.393,35.164,9.819
		c13.905,10.334,22.541,26.932,24.968,43.902c2.654,18.551-1.689,38.102-13.033,53.176c-8.879,11.798-20.75,18.233-35.229,20.277
		c-11.971-0.245-22.032-2.704-32.028-9.532c-14.83-10.129-24.773-26.486-27.9-44.094c-3.085-17.365,0.285-36.288,10.592-50.762
		C1053.463,791.008,1065.698,784.08,1081.523,781.429z"/>
	<path style="fill:#4F749E;" d="M1131.012,819.56c1.303,1.464,1.936,3.616,2.534,5.478c4.487,13.948,5.569,29.381-1.373,42.714
		c-6.976,13.396-18.749,20.268-32.661,24.783l-5.163,0.436c2.68-1.92,5.81-3.123,8.688-4.718c1.499-0.84,2.957-1.748,4.373-2.724
		c1.415-0.975,2.781-2.014,4.1-3.117c1.319-1.103,2.584-2.265,3.794-3.485c1.21-1.221,2.36-2.495,3.452-3.823
		C1131.744,859.143,1132.886,839.235,1131.012,819.56z"/>
	<path style="fill:#FEFEFE;" d="M1064.469,799.261c3.93,0.391,7.233,1.25,10.557,3.475c0.585,0.393,1.149,0.815,1.692,1.264
		c0.543,0.448,1.062,0.924,1.557,1.425c0.495,0.502,0.964,1.027,1.407,1.575c0.443,0.548,0.857,1.117,1.243,1.706
		c0.385,0.59,0.74,1.198,1.065,1.823c0.325,0.625,0.618,1.265,0.88,1.92c0.26,0.655,0.487,1.321,0.681,1.998
		c0.195,0.677,0.355,1.362,0.48,2.056c0.149,0.749,0.259,1.503,0.331,2.262c0.07,0.76,0.101,1.522,0.093,2.285
		c-0.009,0.763-0.057,1.524-0.144,2.282c-0.088,0.758-0.214,1.51-0.381,2.255c-0.166,0.745-0.37,1.479-0.613,2.202
		c-0.242,0.724-0.522,1.433-0.838,2.128c-0.316,0.695-0.667,1.371-1.053,2.029c-0.387,0.659-0.807,1.295-1.26,1.909
		c-3.927,5.241-9.1,7.293-15.372,8.365c-4.453-0.215-8.323-1.11-12.069-3.669c-0.568-0.389-1.115-0.805-1.641-1.25
		c-0.526-0.445-1.027-0.915-1.505-1.41c-0.478-0.495-0.93-1.013-1.356-1.554c-0.426-0.542-0.823-1.103-1.192-1.683
		c-0.369-0.582-0.707-1.18-1.015-1.796c-0.308-0.615-0.584-1.244-0.828-1.889c-0.244-0.643-0.456-1.297-0.634-1.961
		c-0.178-0.665-0.322-1.338-0.432-2.017c-1.008-6.007,0.465-12.448,4.202-17.289C1052.555,802.22,1057.819,800.218,1064.469,799.261
		z"/>
</g>
</svg>
