<svg width="326" height="343" viewBox="0 0 326 343" fill="none" xmlns="http://www.w3.org/2000/svg">
<path d="M108.825 216.866C108.825 216.866 123.638 231.689 138.142 242.154C138.142 242.154 107.43 245.055 100.695 246.692" stroke="#382D27" stroke-width="6" stroke-miterlimit="10" stroke-linecap="round" stroke-linejoin="round"/>
<path d="M70.223 241.722L103.094 248.636L101.168 245.715C101.168 245.715 79.119 238.368 76.312 238.935C73.505 239.503 70.223 241.722 70.223 241.722Z" fill="#382D27"/>
<path d="M81.05 234.399L103.558 248.874L102.761 245.468C102.761 245.468 90.556 234.33 87.726 233.891C84.897 233.452 81.05 234.399 81.05 234.399Z" fill="#382D27"/>
<path d="M114.951 258.102L99.023 246.4L103.214 246.078C103.214 246.078 112.307 250.249 113.519 252.843C114.731 255.437 114.951 258.102 114.951 258.102Z" fill="#382D27"/>
<path d="M82.142 254.311L103.113 248.992L100.06 247.186C100.06 247.186 89.038 247.766 86.671 249.379C84.305 250.992 82.142 254.311 82.142 254.311Z" fill="#382D27"/>
<path d="M182.482 88.5286C184.091 85.8606 185.578 83.0876 186.955 80.3096C188.33 77.5256 189.587 74.7086 190.714 71.8866C191.827 69.0576 192.773 66.2126 193.548 63.4096C194.28 60.5986 194.782 57.8276 195.004 55.2226C195.388 50.7176 199.35 47.3776 203.855 47.7606C208.359 48.1446 211.7 52.1076 211.316 56.6116C211.224 57.6906 210.927 58.7036 210.465 59.6146L210.286 59.9606C208.587 63.2766 206.666 66.2466 204.623 69.0046C202.545 71.7296 200.377 74.2766 198.117 76.6756C195.845 79.0636 193.508 81.3286 191.104 83.4866C188.694 85.6426 186.247 87.6976 183.68 89.6406C183.314 89.9176 182.793 89.8456 182.516 89.4796C182.305 89.2016 182.297 88.8336 182.466 88.5506L182.482 88.5286Z" fill="url(#paint0_linear_11_38)"/>
<path d="M185.216 78.6078C186.775 75.8168 188.031 72.7928 189.018 69.7788C190.016 66.7588 190.742 63.6918 191.179 60.6408C191.306 59.8828 191.412 59.1258 191.468 58.3608C191.534 57.5988 191.624 56.8498 191.669 56.0958C191.703 54.5778 191.808 53.0978 191.706 51.6128C191.669 48.6628 191.171 45.7788 190.625 43.0208C189.754 38.6138 192.62 34.3348 197.027 33.4638C201.434 32.5928 205.713 35.4588 206.584 39.8658C206.779 40.8528 206.787 41.8338 206.631 42.7708L206.623 42.8058C205.985 46.5728 205.202 50.2418 203.934 53.7168C203.382 55.4708 202.62 57.1468 201.928 58.8128C201.555 59.6378 201.137 60.4418 200.744 61.2468C200.361 62.0558 199.93 62.8408 199.481 63.6118C197.751 66.7218 195.77 69.6278 193.588 72.3138C191.405 75.0068 189.075 77.4818 186.435 79.6978C186.086 79.9908 185.565 79.9458 185.272 79.5958C185.046 79.3258 185.021 78.9538 185.183 78.6638L185.216 78.6078Z" fill="url(#paint1_linear_11_38)"/>
<path d="M183.768 72.3737C184.916 69.3907 185.733 66.2207 186.286 63.0977C186.849 59.9677 187.14 56.8287 187.147 53.7457C187.167 52.9777 187.166 52.2127 187.115 51.4467C187.074 50.6827 187.06 49.9277 186.999 49.1747C186.823 47.6657 186.721 46.1847 186.416 44.7267C185.971 41.8077 185.084 39.0167 184.165 36.3557C182.7 32.1087 184.956 27.4787 189.202 26.0137C193.449 24.5487 198.079 26.8047 199.544 31.0507C199.872 32.0017 200.014 32.9727 199.988 33.9227L199.985 33.9597C199.867 37.7737 199.594 41.5097 198.819 45.1227C198.514 46.9347 197.992 48.6967 197.537 50.4407C197.283 51.3087 196.981 52.1617 196.704 53.0137C196.437 53.8677 196.121 54.7037 195.783 55.5297C194.504 58.8487 192.95 61.9997 191.169 64.9647C189.387 67.9367 187.431 70.7137 185.131 73.2797C184.827 73.6197 184.305 73.6477 183.965 73.3437C183.703 73.1087 183.626 72.7437 183.745 72.4337L183.768 72.3737Z" fill="url(#paint2_linear_11_38)"/>
<path d="M182.097 65.7008C182.578 62.3618 182.749 58.9308 182.7 55.5798C182.662 52.2218 182.355 48.8988 181.842 45.6748C181.62 44.0588 181.24 42.4748 180.914 40.9108L180.29 38.5988L179.974 37.4568L179.592 36.3378C178.672 33.3388 177.318 30.5598 175.96 27.9228L175.942 27.8878C173.887 23.8988 175.455 18.9998 179.444 16.9448C183.433 14.8898 188.332 16.4578 190.387 20.4468C190.824 21.2958 191.1 22.2188 191.22 23.1148C191.735 27.0568 192.082 30.9368 191.9 34.7558L191.866 36.1798L191.758 37.5968L191.516 40.4048C191.257 42.2628 191.039 44.1018 190.657 45.9078C189.961 49.5248 189.037 53.0398 187.857 56.4338C186.681 59.8338 185.319 63.0998 183.636 66.2568C183.421 66.6598 182.921 66.8118 182.519 66.5968C182.204 66.4288 182.042 66.0858 182.09 65.7518L182.097 65.7008Z" fill="url(#paint3_linear_11_38)"/>
<path d="M175.899 57.2796C176.194 53.9886 176.151 50.6166 175.88 47.3476C175.619 44.0696 175.085 40.8506 174.33 37.7506C173.996 36.1946 173.483 34.6846 173.049 33.1886C172.485 31.7196 172.037 30.2456 171.369 28.8566C170.214 26.0246 168.643 23.4426 167.08 21.0026L167.067 20.9826C164.646 17.2026 165.748 12.1756 169.528 9.75459C173.308 7.33359 178.335 8.43558 180.756 12.2156C181.282 13.0366 181.646 13.9476 181.848 14.8456C182.694 18.6756 183.365 22.4626 183.499 26.2396C183.659 28.1136 183.567 29.9936 183.576 31.8356C183.452 33.6876 183.39 35.5146 183.137 37.3216C182.718 40.9346 182.035 44.4586 181.08 47.8696C180.129 51.2876 178.971 54.5736 177.461 57.7606C177.266 58.1726 176.773 58.3486 176.361 58.1536C176.04 58.0016 175.862 57.6696 175.892 57.3356L175.899 57.2796Z" fill="url(#paint4_linear_11_38)"/>
<path d="M169.574 49.8967C169.256 46.4637 168.648 43.0157 167.864 39.6787C167.083 36.3337 166.079 33.0707 164.908 29.9297C164.349 28.3517 163.666 26.8267 163.019 25.3137C162.679 24.5627 162.3 23.8317 161.946 23.0967L161.41 22.0007L160.816 20.9387C159.32 18.0737 157.459 15.4917 155.618 13.0497L155.588 13.0097C152.888 9.42867 153.603 4.33667 157.184 1.63667C160.765 -1.06333 165.857 -0.348331 168.557 3.23267C169.121 3.98067 169.544 4.82667 169.815 5.67067C171.025 9.49167 172.067 13.2757 172.613 17.0877L172.849 18.5047L173.014 19.9277C173.117 20.8747 173.241 21.8137 173.321 22.7547C173.444 24.6427 173.586 26.5067 173.589 28.3717C173.647 32.0927 173.486 35.7657 173.084 39.3847C172.683 43.0077 172.094 46.5517 171.203 50.0687C171.091 50.5107 170.642 50.7787 170.199 50.6667C169.851 50.5787 169.611 50.2817 169.579 49.9437L169.574 49.8967Z" fill="url(#paint5_linear_11_38)"/>
<path d="M129.966 170.803C132.446 172.083 135.008 173.243 137.575 174.313C140.147 175.38 142.746 176.342 145.352 177.195C147.963 178.035 150.588 178.731 153.188 179.287C155.793 179.804 158.372 180.13 160.839 180.224C163.677 180.332 165.89 182.719 165.782 185.557C165.674 188.395 163.287 190.608 160.449 190.5C159.979 190.482 159.526 190.402 159.098 190.267L159.034 190.245C156.003 189.273 153.188 188.067 150.514 186.718C147.863 185.333 145.331 183.841 142.902 182.244C140.481 180.634 138.147 178.946 135.89 177.181C133.635 175.41 131.453 173.588 129.356 171.646C129.143 171.449 129.131 171.117 129.327 170.905C129.491 170.728 129.748 170.69 129.952 170.795L129.966 170.803Z" fill="url(#paint6_linear_11_38)"/>
<path d="M139.13 172.156C141.736 173.392 144.52 174.331 147.298 175.043C150.08 175.762 152.898 176.24 155.699 176.464C157.091 176.624 158.498 176.609 159.876 176.653C161.265 176.6 162.635 176.614 163.996 176.441C166.716 176.246 169.36 175.639 171.914 174.987L172.049 174.953C174.8 174.251 177.6 175.912 178.302 178.664C179.004 181.415 177.343 184.215 174.591 184.917C174.165 185.025 173.713 185.076 173.293 185.077C170.01 185.06 166.77 184.919 163.617 184.33C162.035 184.111 160.492 183.697 158.958 183.346C157.441 182.898 155.926 182.505 154.468 181.94C151.529 180.905 148.715 179.621 146.052 178.129C143.384 176.637 140.864 174.978 138.537 173.014C138.316 172.828 138.289 172.498 138.475 172.278C138.631 172.093 138.889 172.043 139.098 172.143L139.13 172.156Z" fill="url(#paint7_linear_11_38)"/>
<path d="M144.564 170.193C147.318 171.048 150.206 171.584 153.056 171.898C155.911 172.219 158.768 172.298 161.574 172.128C162.975 172.092 164.367 171.882 165.738 171.734C167.107 171.49 168.466 171.313 169.79 170.954C172.458 170.384 174.995 169.421 177.438 168.426L177.565 168.374C180.195 167.302 183.195 168.566 184.267 171.195C185.338 173.825 184.075 176.825 181.446 177.896C181.039 178.062 180.597 178.174 180.181 178.231C176.929 178.662 173.705 178.965 170.504 178.818C168.909 178.819 167.324 178.624 165.757 178.488C164.194 178.256 162.64 178.077 161.118 177.721C158.065 177.106 155.102 176.229 152.256 175.126C149.406 174.024 146.678 172.738 144.098 171.123C143.853 170.97 143.779 170.648 143.932 170.403C144.061 170.198 144.308 170.112 144.529 170.181L144.564 170.193Z" fill="url(#paint8_linear_11_38)"/>
<path d="M150.388 167.985C153.419 168.208 156.499 168.141 159.512 167.889C162.531 167.644 165.509 167.163 168.404 166.502C169.857 166.202 171.273 165.763 172.682 165.371L174.757 164.665C175.449 164.444 176.125 164.18 176.789 163.894C179.491 162.874 181.984 161.473 184.374 160.059L184.507 159.98C186.949 158.535 190.101 159.344 191.545 161.787C192.99 164.229 192.181 167.381 189.739 168.825C189.38 169.038 188.98 169.208 188.597 169.325C185.317 170.307 182.05 171.157 178.745 171.545C177.926 171.675 177.106 171.777 176.281 171.831L173.825 172.029C172.185 172.074 170.562 172.156 168.941 172.089C165.705 172.017 162.51 171.736 159.373 171.213C156.233 170.696 153.165 169.997 150.156 169C149.882 168.909 149.733 168.614 149.824 168.34C149.901 168.108 150.125 167.966 150.358 167.983L150.388 167.985Z" fill="url(#paint9_linear_11_38)"/>
<path d="M157.237 161.526C160.214 161.588 163.229 161.338 166.158 160.894C169.093 160.457 171.969 159.781 174.741 158.911C176.137 158.514 177.479 157.96 178.822 157.476C180.13 156.877 181.458 156.379 182.697 155.689C185.24 154.465 187.544 152.876 189.745 151.284L189.867 151.195C192.166 149.531 195.38 150.046 197.044 152.345C198.708 154.644 198.193 157.858 195.894 159.522C195.549 159.771 195.159 159.98 194.782 160.133C191.648 161.381 188.512 162.494 185.293 163.147C183.708 163.554 182.082 163.743 180.495 164.02C178.883 164.18 177.296 164.395 175.696 164.441C172.509 164.609 169.347 164.541 166.232 164.22C163.115 163.904 160.061 163.389 157.054 162.551C156.776 162.474 156.613 162.185 156.691 161.907C156.756 161.672 156.972 161.52 157.205 161.525L157.237 161.526Z" fill="url(#paint10_linear_11_38)"/>
<path d="M163.178 155.07C166.239 154.566 169.283 153.799 172.234 152.882C175.19 151.967 178.066 150.857 180.836 149.603C183.613 148.366 186.267 146.925 188.765 145.331C191.298 143.789 193.57 141.931 195.739 140.079L195.853 139.982C198.01 138.14 201.252 138.395 203.094 140.552C204.936 142.709 204.681 145.951 202.524 147.794C202.212 148.06 201.854 148.293 201.504 148.473C198.415 150.034 195.32 151.468 192.115 152.483C188.935 153.554 185.723 154.386 182.494 154.965C179.271 155.562 176.045 155.968 172.825 156.157C169.602 156.348 166.404 156.366 163.195 156.113C162.907 156.09 162.692 155.839 162.715 155.551C162.734 155.306 162.919 155.114 163.151 155.076L163.178 155.07Z" fill="url(#paint11_linear_11_38)"/>
<path d="M172.292 145.065C174.982 143.856 177.634 142.501 180.202 141.083C182.772 139.659 185.266 138.145 187.659 136.558C190.045 134.958 192.308 133.256 194.411 131.497C196.484 129.709 198.352 127.829 199.903 125.935C202.777 122.426 207.952 121.911 211.462 124.785C214.971 127.659 215.486 132.834 212.612 136.344C211.88 137.238 210.998 137.938 210.033 138.436L209.626 138.642C206.458 140.261 203.318 141.482 200.207 142.469C197.087 143.411 194 144.162 190.927 144.748C187.85 145.318 184.795 145.757 181.749 146.076C178.698 146.39 175.679 146.604 172.627 146.667C172.167 146.677 171.787 146.312 171.778 145.852C171.771 145.508 171.973 145.209 172.268 145.076L172.292 145.065Z" fill="url(#paint12_linear_11_38)"/>
<path d="M179.824 138.912C182.537 137.583 185.144 135.91 187.532 134.1C189.932 132.292 192.143 130.301 194.119 128.169C194.624 127.65 195.112 127.119 195.565 126.556C196.024 126.001 196.496 125.468 196.934 124.908C197.773 123.749 198.646 122.66 199.361 121.455C200.909 119.151 202.06 116.654 203.106 114.232C204.892 110.097 209.693 108.193 213.828 109.98C217.963 111.766 219.867 116.567 218.08 120.701C217.655 121.685 217.059 122.543 216.342 123.255L216.279 123.315C213.685 125.874 211.034 128.271 208.118 130.247C206.714 131.293 205.192 132.162 203.731 133.06C202.984 133.488 202.214 133.876 201.463 134.278C200.717 134.688 199.948 135.053 199.172 135.397C196.107 136.829 192.966 137.962 189.794 138.814C186.617 139.67 183.452 140.274 180.19 140.508C179.735 140.541 179.339 140.198 179.306 139.742C179.281 139.396 179.473 139.084 179.766 138.94L179.824 138.912Z" fill="url(#paint13_linear_11_38)"/>
<path d="M182.111 133.316C184.609 131.617 186.953 129.593 189.062 127.465C191.184 125.337 193.095 123.057 194.755 120.669C195.183 120.084 195.592 119.49 195.963 118.869C196.341 118.255 196.735 117.662 197.09 117.046C197.762 115.782 198.475 114.581 199.018 113.288C200.234 110.791 201.034 108.157 201.741 105.612C202.946 101.272 207.442 98.7297 211.782 99.9357C216.122 101.141 218.664 105.637 217.458 109.977C217.171 111.01 216.698 111.942 216.084 112.745L216.029 112.813C213.811 115.698 211.516 118.432 208.904 120.788C207.659 122.016 206.274 123.086 204.952 124.177C204.273 124.705 203.564 125.194 202.877 125.696C202.196 126.205 201.486 126.674 200.766 127.121C197.933 128.965 194.982 130.525 191.963 131.813C188.939 133.106 185.893 134.151 182.698 134.843C182.252 134.94 181.811 134.656 181.715 134.21C181.642 133.871 181.787 133.536 182.057 133.352L182.111 133.316Z" fill="url(#paint14_linear_11_38)"/>
<path d="M184.463 127.264C186.636 124.93 188.62 122.356 190.387 119.728C192.166 117.1 193.716 114.355 195.051 111.579C195.747 110.207 196.303 108.774 196.89 107.387L197.646 105.261C197.91 104.564 198.126 103.852 198.317 103.136C199.21 100.322 199.646 97.4466 200.002 94.6876C200.576 90.2306 204.655 87.0827 209.112 87.6567C213.569 88.2307 216.717 92.3097 216.142 96.7667C216.012 97.7747 215.703 98.7156 215.25 99.5626L215.229 99.5967C213.43 102.934 211.536 106.122 209.269 108.967C208.732 109.697 208.174 110.405 207.577 111.08L205.827 113.11C204.594 114.398 203.403 115.693 202.104 116.871C199.556 119.268 196.891 121.457 194.097 123.41C191.303 125.37 188.443 127.12 185.394 128.61C184.984 128.811 184.488 128.641 184.288 128.23C184.134 127.914 184.199 127.548 184.424 127.305L184.463 127.264Z" fill="url(#paint15_linear_11_38)"/>
<path d="M183.604 112.587C185.844 110.837 187.87 108.709 189.576 106.488C191.293 104.26 192.739 101.897 193.835 99.4428C194.937 96.9958 195.793 94.5218 196.251 91.9968C196.553 90.7688 196.649 89.4818 196.794 88.2508C196.929 87.0158 196.873 85.7378 196.931 84.5348L196.949 84.1638C197.165 79.6438 201.003 76.1548 205.523 76.3698C210.043 76.5848 213.532 80.4238 213.317 84.9438C213.265 86.0438 212.978 87.1198 212.538 88.0588C211.774 89.6728 211.113 91.2818 210.249 92.8068C209.373 94.3288 208.543 95.8338 207.505 97.2258C205.579 100.071 203.268 102.593 200.826 104.818C198.387 107.054 195.716 108.934 192.943 110.487C190.159 112.042 187.311 113.276 184.262 114.086C183.821 114.203 183.369 113.941 183.252 113.5C183.165 113.171 183.289 112.835 183.541 112.637L183.604 112.587Z" fill="url(#paint16_linear_11_38)"/>
<path d="M183.409 101.177C185.213 99.1528 186.814 96.8478 188.242 94.5348C189.671 92.2068 190.93 89.8018 192.06 87.3698C193.149 84.9048 194.159 82.4528 194.97 79.9298C195.418 78.6978 195.742 77.4008 196.124 76.1598C196.474 74.8978 196.764 73.6158 197.082 72.3668L197.11 72.2548C198.224 67.8678 202.682 65.2148 207.069 66.3288C211.456 67.4428 214.109 71.9008 212.995 76.2878C212.703 77.4368 212.156 78.4968 211.467 79.3718C210.501 80.5868 209.57 81.8028 208.586 82.9788C207.567 84.1368 206.619 85.3158 205.551 86.4148C203.505 88.6618 201.292 90.7468 199.059 92.7358C196.783 94.6958 194.432 96.5278 191.986 98.1838C189.526 99.8358 187.039 101.332 184.317 102.54C183.899 102.726 183.409 102.537 183.223 102.119C183.087 101.812 183.152 101.467 183.361 101.232L183.409 101.177Z" fill="url(#paint17_linear_11_38)"/>
<path d="M80.755 162.446C80.755 162.446 155.191 130.074 158.831 7.7356C158.831 7.7356 230.314 54.0756 196.254 141.056C165.976 218.376 80.755 162.446 80.755 162.446Z" fill="url(#paint18_linear_11_38)"/>
<path d="M186.31 205.015C186.607 205.703 187.099 206.692 187.524 207.563L188.89 210.282C189.82 212.105 190.781 213.93 191.752 215.756C193.72 219.399 195.72 223.051 197.82 226.655C201.988 233.883 206.387 241.012 211.005 248.001C220.245 261.975 230.319 275.45 241.502 287.94C247.063 294.223 252.963 300.181 259.155 305.83C262.221 308.705 265.46 311.34 268.686 314.043C272.006 316.579 275.305 319.21 278.801 321.521C292.576 331.112 308.183 338.371 325.192 341.35L325.202 341.352C325.475 341.4 325.657 341.66 325.609 341.932C325.566 342.177 325.353 342.348 325.113 342.347C316.412 342.299 307.647 341.09 299.062 338.954C290.445 336.869 282.123 333.64 274.041 329.91C269.958 328.094 266.07 325.946 262.115 323.853C258.277 321.607 254.383 319.389 250.671 316.926C243.171 312.092 235.907 306.862 228.967 301.26C215.01 290.116 202.068 277.769 189.882 264.717C183.789 258.185 177.896 251.463 172.189 244.549C169.321 241.103 166.536 237.578 163.762 234.018C162.385 232.228 161.011 230.427 159.651 228.596L157.612 225.815C156.917 224.844 156.29 223.989 155.501 222.815L155.02 222.099C149.505 213.894 151.686 202.772 159.891 197.257C168.096 191.742 179.218 193.923 184.733 202.128C185.339 203.028 185.888 204.056 186.31 205.015Z" fill="url(#paint19_linear_11_38)"/>
<path d="M170.619 207.656C170.624 207.698 170.613 207.704 170.63 207.777L170.681 208L170.792 208.462L171.049 209.453L171.626 211.514C172.025 212.901 172.451 214.311 172.903 215.72C173.792 218.542 174.764 221.376 175.788 224.201C177.838 229.853 180.105 235.478 182.574 241.028C187.523 252.123 193.23 262.976 199.859 273.295C201.489 275.901 203.241 278.411 204.975 280.961C206.781 283.438 208.552 285.974 210.47 288.381C212.328 290.852 214.325 293.193 216.301 295.585L219.378 299.06L220.933 300.795L222.542 302.473C231.075 311.515 240.769 319.58 251.508 326.432L251.514 326.436C251.748 326.585 251.817 326.896 251.667 327.13C251.539 327.331 251.291 327.41 251.075 327.333C239.007 323.045 227.281 317.162 216.372 309.886L214.311 308.534L212.299 307.118L208.281 304.25C205.674 302.254 203.018 300.279 200.494 298.157C197.905 296.094 195.456 293.889 192.95 291.711C190.524 289.469 188.06 287.235 185.716 284.893C176.212 275.614 167.491 265.497 159.429 254.807C155.402 249.456 151.554 243.952 147.879 238.278C146.041 235.44 144.248 232.562 142.507 229.609C141.63 228.137 140.773 226.645 139.921 225.117L138.648 222.793L138.009 221.58L137.681 220.936L137.515 220.605L137.312 220.171L136.031 217.428C131.777 208.316 135.715 197.482 144.827 193.228C153.939 188.974 164.773 192.913 169.027 202.024C169.87 203.831 170.396 205.781 170.619 207.656Z" fill="url(#paint20_linear_11_38)"/>
<path d="M160.178 194.115C160.116 194.384 160.104 195.044 160.075 195.548L160.027 197.229C160.002 198.364 159.996 199.523 159.997 200.684C160 203.012 160.062 205.368 160.144 207.729C160.324 212.455 160.664 217.209 161.146 221.959C162.116 231.459 163.698 240.933 166.02 250.253C167.206 254.9 168.553 259.524 170.152 264.07C171.777 268.597 173.603 273.076 175.724 277.441C177.883 281.774 180.299 286.014 183.063 290.082C185.875 294.1 189.02 297.942 192.546 301.532L192.554 301.54C192.749 301.739 192.746 302.058 192.548 302.253C192.385 302.413 192.14 302.44 191.949 302.334C187.509 299.862 183.233 296.961 179.169 293.71C175.154 290.414 171.371 286.783 167.788 282.923C164.247 279.037 160.947 274.911 157.823 270.633C154.728 266.342 151.863 261.882 149.149 257.317C143.774 248.166 139.112 238.577 135.07 228.708C133.051 223.77 131.175 218.763 129.456 213.667C128.603 211.115 127.771 208.548 126.994 205.935C126.605 204.626 126.223 203.312 125.856 201.969L125.311 199.931C125.131 199.193 124.965 198.612 124.773 197.637L123.96 193.513C121.983 183.476 128.517 173.736 138.554 171.759C148.591 169.782 158.331 176.316 160.308 186.353C160.824 188.975 160.734 191.666 160.178 194.115Z" fill="url(#paint21_linear_11_38)"/>
<path d="M181.255 188.229C181.321 188.348 181.352 188.44 181.446 188.584L181.751 189.036C181.958 189.339 182.15 189.637 182.384 189.954C182.839 190.58 183.274 191.209 183.75 191.839C184.695 193.101 185.651 194.369 186.654 195.622C188.634 198.142 190.71 200.628 192.846 203.07C197.121 207.958 201.658 212.66 206.452 217.153C211.274 221.586 216.372 225.739 221.816 229.576C227.301 233.284 233.141 236.575 239.514 239.197L239.53 239.204C239.79 239.311 239.914 239.609 239.807 239.869C239.728 240.06 239.546 240.178 239.352 240.184C232.418 240.397 225.286 239.771 218.2 238.518C211.173 237.152 204.161 235.275 197.27 232.972C190.417 230.617 183.647 227.902 176.994 224.847C173.665 223.319 170.365 221.712 167.084 219.996C165.439 219.152 163.802 218.257 162.159 217.348C161.337 216.897 160.509 216.406 159.681 215.932C159.272 215.702 158.839 215.432 158.414 215.175L157.773 214.785L157.028 214.288L154.64 212.696C146.09 206.995 143.781 195.443 149.481 186.893C155.182 178.343 166.734 176.034 175.284 181.734C177.831 183.432 179.862 185.726 181.255 188.229Z" fill="url(#paint22_linear_11_38)"/>
<path d="M187.631 199.535C187.637 199.567 187.618 199.558 187.643 199.624L187.721 199.826L187.889 200.248L188.28 201.166L189.148 203.082C189.746 204.372 190.381 205.684 191.046 206.99C192.36 209.609 193.771 212.228 195.248 214.822C198.199 220.015 201.403 225.128 204.836 230.104C208.27 235.081 211.934 239.925 215.818 244.608C219.694 249.302 223.813 253.815 228.176 258.102C232.532 262.395 237.093 266.534 241.946 270.327L243.755 271.776L245.615 273.148C246.862 274.054 248.09 275.01 249.366 275.883C251.926 277.613 254.488 279.389 257.167 280.966C259.797 282.655 262.561 284.078 265.305 285.615C266.696 286.333 268.111 287.001 269.521 287.701L271.644 288.742L273.81 289.677L278.172 291.547L282.632 293.195L284.877 294.018L287.156 294.724L291.743 296.143L291.769 296.151C292.034 296.233 292.182 296.514 292.1 296.778C292.03 297.006 291.811 297.147 291.583 297.13L286.752 296.765L284.322 296.579L281.909 296.272L277.058 295.64L272.237 294.762L269.815 294.312L267.422 293.75C265.826 293.367 264.213 293.011 262.616 292.599C259.462 291.677 256.241 290.844 253.126 289.724C249.957 288.715 246.877 287.486 243.764 286.276C242.212 285.663 240.704 284.963 239.166 284.305L236.865 283.3L234.608 282.211C228.54 279.361 222.673 276.072 216.938 272.531C211.194 268.996 205.629 265.141 200.258 261.014C194.877 256.896 189.666 252.528 184.641 247.924C179.615 243.32 174.777 238.485 170.12 233.409C167.789 230.871 165.508 228.272 163.275 225.575C162.153 224.233 161.05 222.863 159.947 221.448C159.397 220.751 158.845 220.02 158.294 219.288L157.456 218.148L157.02 217.535L156.798 217.218L156.515 216.786L154.078 213.063C148.499 204.54 150.886 193.108 159.409 187.53C167.932 181.951 179.364 184.338 184.942 192.861C186.292 194.927 187.189 197.254 187.631 199.535Z" fill="url(#paint23_linear_11_38)"/>
<path d="M176.289 219.635C162.235 240.349 125.011 239.929 103.814 225.254C82.618 210.579 76.828 181.891 90.882 161.177C104.936 140.463 133.512 135.567 154.709 150.242C175.906 164.917 190.344 198.921 176.289 219.635Z" fill="url(#paint24_linear_11_38)"/>
<path d="M139.561 143.511C139.561 143.511 117.413 138.968 99.126 127.045C85.135 117.922 76.128 115.047 76.128 115.047L55.686 161.288C55.686 161.288 70.982 175.121 87.082 205.219C84.271 195.275 91.907 174.076 109.943 162.508C139.561 143.511 139.561 143.511 139.561 143.511Z" fill="url(#paint25_linear_11_38)"/>
<path d="M87.306 152.038C80.973 167.96 66.408 169.469 51.637 160.782C23.263 144.094 25.28 140.079 29.645 129.103C35.978 113.18 54.02 105.407 69.943 111.74C85.866 118.074 93.64 136.115 87.306 152.038Z" fill="url(#paint26_linear_11_38)"/>
<path d="M33.195 123.021C33.195 123.021 17.595 125.964 0 138.181C0 138.181 17.241 152.058 40.055 151.193C40.055 151.193 39.187 134.449 33.195 123.021Z" fill="url(#paint27_linear_11_38)"/>
<path opacity="0.2" d="M40.056 151.193C40.056 151.193 39.888 147.968 39.194 143.385C32.103 145.39 0 138.181 0 138.181C0 138.181 16.977 151.727 40.056 151.193Z" fill="#9B2C2C"/>
<path d="M123.119 138.677C123.119 138.677 204.287 139.33 257.304 29.0156C257.304 29.0156 303.802 100.396 237.349 166.044C178.275 224.401 123.119 138.677 123.119 138.677Z" fill="url(#paint28_linear_11_38)"/>
<path d="M246.1 112.452C248.654 110.667 251.139 108.737 253.526 106.759C255.914 104.774 258.206 102.71 260.382 100.589C262.548 98.4557 264.568 96.2407 266.415 93.9937C268.226 91.7227 269.81 89.3937 271.071 87.1047C273.251 83.1447 278.229 81.7017 282.19 83.8817C286.151 86.0617 287.593 91.0397 285.413 95.0007C284.891 95.9497 284.207 96.7537 283.416 97.3987L283.112 97.6417C280.212 99.9807 277.251 101.916 274.264 103.607C271.258 105.253 268.242 106.699 265.203 107.974C262.156 109.233 259.101 110.354 256.028 111.35C252.949 112.342 249.88 113.225 246.745 113.958C246.298 114.062 245.851 113.785 245.747 113.338C245.668 112.998 245.809 112.658 246.078 112.469L246.1 112.452Z" fill="url(#paint29_linear_11_38)"/>
<path d="M252.628 104.496C255.186 102.579 257.563 100.326 259.689 97.9716C261.828 95.6176 263.737 93.1096 265.376 90.4996C265.8 89.8586 266.204 89.2096 266.566 88.5336C266.936 87.8646 267.323 87.2156 267.669 86.5456C268.317 85.1726 269.014 83.8626 269.524 82.4636C270.688 79.7526 271.404 76.9156 272.027 74.1726C273.021 69.7916 277.378 67.0456 281.759 68.0396C286.14 69.0336 288.886 73.3906 287.892 77.7716C287.669 78.7526 287.278 79.6526 286.755 80.4456L286.733 80.4746C284.62 83.6576 282.415 86.6926 279.845 89.3526C278.628 90.7316 277.251 91.9526 275.942 93.1936C275.266 93.7956 274.558 94.3606 273.872 94.9376C273.193 95.5216 272.481 96.0636 271.757 96.5856C268.913 98.7246 265.922 100.576 262.838 102.145C259.749 103.719 256.615 105.035 253.303 105.987C252.865 106.113 252.407 105.86 252.281 105.421C252.184 105.083 252.312 104.733 252.578 104.533L252.628 104.496Z" fill="url(#paint30_linear_11_38)"/>
<path d="M253.837 98.2116C256.098 95.9516 258.132 93.3866 259.906 90.7576C261.692 88.1256 263.232 85.3756 264.491 82.5616C264.822 81.8676 265.131 81.1686 265.396 80.4476C265.669 79.7326 265.963 79.0376 266.213 78.3246C266.665 76.8746 267.174 75.4796 267.487 74.0226C268.267 71.1746 268.589 68.2636 268.831 65.4586C269.218 60.9826 273.159 57.6676 277.635 58.0546C282.111 58.4416 285.426 62.3826 285.039 66.8586C284.952 67.8616 284.687 68.8056 284.278 69.6636L284.26 69.6956C282.603 73.1326 280.836 76.4366 278.66 79.4226C277.646 80.9536 276.453 82.3526 275.329 83.7616C274.744 84.4516 274.121 85.1086 273.523 85.7746C272.932 86.4466 272.303 87.0826 271.659 87.6996C269.143 90.2126 266.442 92.4616 263.61 94.4476C260.775 96.4396 257.859 98.1826 254.715 99.5936C254.299 99.7806 253.81 99.5946 253.624 99.1786C253.48 98.8576 253.558 98.4926 253.792 98.2576L253.837 98.2116Z" fill="url(#paint31_linear_11_38)"/>
<path d="M255.02 91.4356C256.816 88.5796 258.365 85.5136 259.682 82.4316C261.011 79.3476 262.08 76.1866 262.921 73.0316C263.374 71.4656 263.671 69.8636 264.008 68.3016L264.377 65.9356L264.552 64.7636L264.657 63.5856C265.034 60.4716 264.926 57.3816 264.756 54.4206L264.754 54.3816C264.497 49.9016 267.919 46.0616 272.399 45.8046C276.879 45.5476 280.719 48.9696 280.976 53.4496C281.031 54.4036 280.907 55.3586 280.654 56.2256C279.523 60.0376 278.264 63.7236 276.547 67.1386L275.938 68.4266L275.263 69.6776L273.901 72.1456C272.91 73.7386 271.964 75.3296 270.881 76.8256C268.776 79.8476 266.504 82.6846 264.047 85.3066C261.591 87.9356 259.02 90.3666 256.199 92.5686C255.84 92.8496 255.32 92.7856 255.04 92.4256C254.82 92.1446 254.812 91.7656 254.991 91.4796L255.02 91.4356Z" fill="url(#paint32_linear_11_38)"/>
<path d="M252.776 81.2226C254.382 78.3356 255.713 75.2366 256.793 72.1396C257.885 69.0386 258.706 65.8796 259.275 62.7396C259.602 61.1816 259.747 59.5936 259.958 58.0516C260.039 56.4796 260.228 54.9506 260.182 53.4106C260.277 50.3536 259.89 47.3566 259.453 44.4916L259.449 44.4686C258.772 40.0306 261.821 35.8856 266.258 35.2086C270.696 34.5316 274.841 37.5806 275.518 42.0186C275.665 42.9816 275.628 43.9626 275.448 44.8656C274.665 48.7086 273.74 52.4416 272.328 55.9476C271.713 57.7256 270.865 59.4056 270.125 61.0926C269.26 62.7346 268.461 64.3786 267.496 65.9276C265.646 69.0596 263.59 72.0016 261.332 74.7316C259.075 77.4686 256.682 80.0016 254.008 82.3006C253.662 82.5976 253.141 82.5586 252.844 82.2126C252.612 81.9436 252.585 81.5676 252.748 81.2746L252.776 81.2226Z" fill="url(#paint33_linear_11_38)"/>
<path d="M249.996 71.9068C251.1 68.6408 251.945 65.2438 252.583 61.8748C253.228 58.5008 253.636 55.1117 253.842 51.7657C253.972 50.0957 253.968 48.4258 253.991 46.7808C253.985 45.9568 253.936 45.1337 253.911 44.3187L253.866 43.0998L253.754 41.8877C253.551 38.6617 252.899 35.5467 252.209 32.5677L252.198 32.5188C251.186 28.1498 253.907 23.7867 258.276 22.7747C262.645 21.7627 267.008 24.4838 268.021 28.8528C268.232 29.7648 268.275 30.7098 268.18 31.5918C267.733 35.5748 267.149 39.4558 266.099 43.1608L265.739 44.5518L265.312 45.9198C265.022 46.8278 264.754 47.7358 264.444 48.6278C263.79 50.4028 263.162 52.1648 262.407 53.8698C260.949 57.2938 259.31 60.5848 257.473 63.7278C255.635 66.8758 253.657 69.8747 251.414 72.7267C251.132 73.0857 250.613 73.1478 250.254 72.8658C249.972 72.6438 249.873 72.2748 249.981 71.9538L249.996 71.9068Z" fill="url(#paint34_linear_11_38)"/>
<path d="M81.989 166.755C61.025 182.516 104.542 216.912 120.162 219.427C120.162 219.427 115.209 141.78 81.989 166.755Z" fill="url(#paint35_linear_11_38)"/>
<path d="M164.693 166.302C166.44 168.479 168.309 170.58 170.22 172.6C172.137 174.62 174.121 176.555 176.156 178.393C178.201 180.221 180.317 181.924 182.466 183.488C184.636 185.018 186.86 186.364 189.077 187.452C191.626 188.703 192.679 191.784 191.428 194.333C190.177 196.882 187.096 197.935 184.547 196.684C184.125 196.477 183.744 196.219 183.407 195.922L183.358 195.876C180.983 193.757 178.901 191.511 177.006 189.192C175.145 186.85 173.438 184.458 171.867 182.011C170.309 179.556 168.861 177.066 167.516 174.536C166.174 172.002 164.921 169.451 163.793 166.825C163.679 166.559 163.802 166.25 164.068 166.136C164.289 166.041 164.54 166.11 164.684 166.289L164.693 166.302Z" fill="url(#paint36_linear_11_38)"/>
<path d="M172.517 171.261C174.396 173.449 176.559 175.438 178.808 177.216C181.058 179.003 183.439 180.585 185.908 181.927C187.115 182.638 188.407 183.197 189.648 183.797C190.939 184.313 192.185 184.882 193.499 185.276C196.064 186.203 198.726 186.722 201.325 187.164L201.462 187.187C204.261 187.663 206.145 190.318 205.669 193.118C205.193 195.917 202.538 197.801 199.738 197.325C199.305 197.251 198.871 197.114 198.487 196.944C195.494 195.595 192.591 194.15 189.949 192.332C188.593 191.49 187.35 190.484 186.091 189.54C184.887 188.515 183.662 187.54 182.559 186.431C180.294 184.291 178.244 181.976 176.417 179.53C174.585 177.083 172.956 174.543 171.627 171.803C171.501 171.543 171.609 171.231 171.869 171.105C172.087 170.999 172.342 171.059 172.493 171.234L172.517 171.261Z" fill="url(#paint37_linear_11_38)"/>
<path d="M178.28 171.675C180.45 173.575 182.871 175.238 185.347 176.682C187.826 178.135 190.404 179.368 193.037 180.352C194.332 180.888 195.689 181.262 197.002 181.683C198.352 182.016 199.665 182.406 201.022 182.616C203.692 183.18 206.401 183.33 209.038 183.413L209.175 183.417C212.013 183.506 214.242 185.879 214.153 188.717C214.064 191.555 211.691 193.784 208.853 193.695C208.414 193.681 207.965 193.604 207.561 193.488C204.415 192.561 201.345 191.528 198.479 190.093C197.021 189.446 195.652 188.624 194.276 187.863C192.942 187.016 191.595 186.221 190.349 185.278C187.809 183.476 185.457 181.471 183.305 179.307C181.148 177.143 179.178 174.859 177.476 172.336C177.315 172.097 177.378 171.772 177.617 171.611C177.818 171.476 178.079 171.498 178.253 171.651L178.28 171.675Z" fill="url(#paint38_linear_11_38)"/>
<path d="M184.499 172.022C187.178 173.456 190.02 174.647 192.875 175.64C195.733 176.643 198.65 177.412 201.564 177.984C203.014 178.3 204.486 178.474 205.932 178.688L208.115 178.885C208.837 178.965 209.562 178.998 210.285 179.006C213.168 179.171 216.016 178.903 218.773 178.583L218.927 178.565C221.746 178.237 224.297 180.256 224.625 183.075C224.953 185.894 222.934 188.445 220.115 188.773C219.701 188.821 219.266 188.814 218.869 188.766C215.473 188.331 212.142 187.781 208.964 186.793C208.162 186.579 207.372 186.339 206.596 186.053L204.271 185.236C202.754 184.611 201.238 184.026 199.784 183.307C196.856 181.927 194.05 180.372 191.397 178.621C188.738 176.873 186.218 174.988 183.873 172.855C183.659 172.661 183.644 172.33 183.838 172.117C184.003 171.936 184.265 171.897 184.471 172.008L184.499 172.022Z" fill="url(#paint39_linear_11_38)"/>
<path d="M193.381 168.902C196.076 170.168 198.933 171.164 201.789 171.948C204.649 172.741 207.551 173.292 210.437 173.622C211.873 173.826 213.325 173.866 214.75 173.969C216.188 173.953 217.605 174.037 219.017 173.91C221.837 173.824 224.589 173.309 227.247 172.747L227.395 172.716C230.172 172.129 232.899 173.905 233.486 176.683C234.073 179.46 232.297 182.187 229.52 182.774C229.104 182.862 228.662 182.895 228.256 182.881C224.885 182.748 221.567 182.492 218.361 181.781C216.747 181.509 215.184 181.021 213.622 180.63C212.084 180.122 210.546 179.674 209.065 179.065C206.085 177.925 203.223 176.577 200.507 175.019C197.787 173.464 195.205 171.753 192.798 169.766C192.575 169.582 192.544 169.253 192.728 169.03C192.883 168.842 193.142 168.79 193.353 168.89L193.381 168.902Z" fill="url(#paint40_linear_11_38)"/>
<path d="M201.432 165.415C204.434 166.198 207.527 166.733 210.596 167.094C213.669 167.459 216.748 167.613 219.788 167.591C222.828 167.589 225.839 167.349 228.769 166.908C231.71 166.528 234.54 165.753 237.275 164.941L237.418 164.899C240.138 164.092 242.996 165.642 243.803 168.362C244.61 171.082 243.06 173.94 240.34 174.747C239.947 174.864 239.525 174.931 239.133 174.953C235.676 175.124 232.266 175.178 228.925 174.804C225.584 174.491 222.311 173.946 219.126 173.164C215.938 172.401 212.826 171.461 209.806 170.325C206.783 169.19 203.854 167.908 201.025 166.373C200.771 166.235 200.677 165.918 200.815 165.664C200.932 165.448 201.179 165.348 201.406 165.407L201.432 165.415Z" fill="url(#paint41_linear_11_38)"/>
<path d="M213.824 159.974C216.773 159.962 219.747 159.801 222.669 159.548C225.596 159.29 228.49 158.92 231.321 158.442C234.151 157.949 236.91 157.313 239.546 156.56C242.167 155.768 244.637 154.809 246.824 153.708C250.876 151.669 255.814 153.3 257.854 157.352C259.893 161.404 258.262 166.342 254.21 168.381C253.178 168.901 252.088 169.182 251.004 169.246L250.548 169.269C246.996 169.462 243.631 169.303 240.386 168.941C237.152 168.535 234.026 167.967 230.98 167.254C227.937 166.525 224.967 165.685 222.054 164.739C219.139 163.787 216.293 162.756 213.479 161.574C213.055 161.396 212.856 160.908 213.034 160.484C213.167 160.167 213.474 159.976 213.797 159.974H213.824Z" fill="url(#paint42_linear_11_38)"/>
<path d="M223.206 157.412C226.225 157.3 229.287 156.829 232.204 156.146C235.132 155.468 237.961 154.548 240.633 153.402C241.305 153.132 241.967 152.846 242.61 152.515C243.255 152.194 243.902 151.899 244.53 151.565C245.768 150.847 247.008 150.206 248.15 149.395C250.5 147.918 252.567 146.104 254.506 144.316C257.818 141.263 262.978 141.473 266.031 144.785C269.084 148.097 268.874 153.257 265.562 156.31C264.774 157.037 263.88 157.579 262.936 157.938L262.854 157.967C259.444 159.252 256.048 160.365 252.581 160.987C250.873 161.373 249.13 161.548 247.43 161.776C246.573 161.864 245.712 161.905 244.863 161.967C244.015 162.039 243.164 162.06 242.315 162.059C238.933 162.123 235.602 161.882 232.357 161.372C229.106 160.864 225.968 160.131 222.893 159.019C222.464 158.864 222.241 158.39 222.396 157.96C222.514 157.634 222.816 157.427 223.142 157.414L223.206 157.412Z" fill="url(#paint43_linear_11_38)"/>
<path d="M227.569 153.227C230.542 152.689 233.506 151.791 236.298 150.704C239.101 149.621 241.774 148.314 244.261 146.806C244.889 146.445 245.505 146.069 246.096 145.652C246.691 145.244 247.291 144.863 247.867 144.444C248.994 143.562 250.134 142.754 251.155 141.793C253.28 140.005 255.082 137.923 256.761 135.885C259.625 132.409 264.765 131.912 268.242 134.776C271.719 137.64 272.215 142.78 269.351 146.257C268.669 147.085 267.858 147.744 266.971 148.228L266.894 148.268C263.695 150.003 260.488 151.569 257.144 152.662C255.507 153.278 253.807 153.694 252.156 154.153C251.321 154.359 250.475 154.519 249.643 154.698C248.814 154.887 247.975 155.026 247.135 155.143C243.797 155.677 240.468 155.904 237.185 155.855C233.896 155.809 230.688 155.525 227.487 154.861C227.04 154.768 226.753 154.33 226.846 153.883C226.917 153.543 227.186 153.296 227.508 153.238L227.569 153.227Z" fill="url(#paint44_linear_11_38)"/>
<path d="M232.176 148.652C235.11 147.402 237.968 145.855 240.65 144.172C243.343 142.493 245.874 140.615 248.222 138.62C249.415 137.649 250.506 136.566 251.605 135.536L253.16 133.9C253.684 133.37 254.171 132.808 254.636 132.231C256.595 130.022 258.161 127.572 259.607 125.196C261.942 121.356 266.948 120.137 270.787 122.472C274.626 124.807 275.846 129.813 273.511 133.652C272.983 134.521 272.318 135.255 271.561 135.845L271.528 135.868C268.529 138.186 265.502 140.331 262.276 142.01C261.489 142.459 260.692 142.88 259.872 143.253L257.449 144.397C255.799 145.073 254.185 145.772 252.519 146.321C249.217 147.477 245.893 148.395 242.547 149.044C239.198 149.7 235.873 150.137 232.482 150.261C232.026 150.278 231.642 149.921 231.626 149.465C231.613 149.114 231.821 148.805 232.126 148.675L232.176 148.652Z" fill="url(#paint45_linear_11_38)"/>
<path d="M237.353 134.892C240.111 134.203 242.826 133.081 245.287 131.744C247.761 130.406 250.042 128.834 252.04 127.036C254.041 125.247 255.828 123.335 257.272 121.213C258.047 120.213 258.657 119.076 259.29 118.011C259.915 116.937 260.383 115.746 260.924 114.671L261.091 114.339C263.124 110.296 268.049 108.667 272.092 110.7C276.135 112.733 277.764 117.658 275.731 121.701C275.236 122.685 274.537 123.552 273.754 124.232C272.4 125.397 271.143 126.598 269.734 127.64C268.315 128.675 266.945 129.713 265.432 130.564C262.516 132.381 259.38 133.747 256.245 134.788C253.108 135.841 249.903 136.474 246.738 136.766C243.563 137.056 240.459 137.027 237.344 136.529C236.893 136.457 236.587 136.033 236.659 135.583C236.713 135.246 236.963 134.99 237.274 134.912L237.353 134.892Z" fill="url(#paint46_linear_11_38)"/>
<path d="M241.809 124.386C244.279 123.269 246.679 121.813 248.923 120.279C251.175 118.732 253.302 117.046 255.322 115.283C257.318 113.473 259.237 111.642 261.003 109.666C261.912 108.722 262.736 107.669 263.589 106.69C264.421 105.679 265.207 104.626 266.005 103.613L266.077 103.522C268.876 99.9656 274.029 99.3516 277.585 102.152C281.141 104.951 281.755 110.104 278.955 113.66C278.222 114.591 277.291 115.338 276.306 115.857C274.93 116.575 273.585 117.308 272.208 117.982C270.807 118.627 269.462 119.319 268.039 119.889C265.257 121.112 262.387 122.118 259.539 123.028C256.663 123.895 253.771 124.613 250.863 125.133C247.944 125.643 245.064 126.001 242.086 125.998C241.628 125.998 241.258 125.626 241.258 125.169C241.258 124.834 241.458 124.545 241.745 124.415L241.809 124.386Z" fill="url(#paint47_linear_11_38)"/>
<path d="M43.168 137.126C43.168 137.126 45.267 144.479 55.686 144.407C66.105 144.334 70.9 148.944 70.9 148.944C70.9 148.944 68.156 133.74 57.085 127.577L43.168 137.126Z" fill="url(#paint48_linear_11_38)"/>
<path d="M42.309 129.262C44.026 124.944 48.919 122.836 53.237 124.554C57.554 126.271 59.663 131.164 57.945 135.482C56.228 139.8 51.335 141.908 47.017 140.19C42.699 138.472 40.591 133.58 42.309 129.262Z" fill="white"/>
<path d="M43.663 129.8C45.083 126.23 49.128 124.487 52.698 125.907C56.267 127.327 58.011 131.372 56.591 134.942C55.171 138.512 51.125 140.255 47.556 138.835C43.986 137.416 42.243 133.371 43.663 129.8Z" fill="#2B1A11"/>
<path d="M46.43 126.67C46.931 125.411 48.358 124.796 49.617 125.297C50.876 125.798 51.491 127.225 50.99 128.484C50.489 129.744 49.062 130.358 47.803 129.857C46.544 129.356 45.93 127.93 46.43 126.67Z" fill="white"/>
<path d="M147.887 155.366C149.634 157.543 151.503 159.644 153.414 161.664C155.331 163.683 157.315 165.619 159.35 167.457C161.395 169.285 163.511 170.988 165.66 172.551C167.83 174.082 170.055 175.427 172.271 176.515C174.82 177.766 175.873 180.847 174.622 183.396C173.371 185.945 170.29 186.998 167.741 185.747C167.319 185.54 166.938 185.282 166.601 184.985L166.551 184.939C164.176 182.82 162.094 180.574 160.199 178.255C158.339 175.913 156.631 173.521 155.061 171.075C153.503 168.62 152.055 166.13 150.71 163.6C149.368 161.066 148.115 158.515 146.987 155.889C146.873 155.623 146.996 155.314 147.262 155.2C147.483 155.105 147.734 155.174 147.878 155.353L147.887 155.366Z" fill="url(#paint49_linear_11_38)"/>
<path d="M155.712 160.325C157.592 162.513 159.754 164.502 162.003 166.28C164.253 168.067 166.634 169.649 169.103 170.991C170.31 171.702 171.602 172.261 172.843 172.861C174.134 173.377 175.38 173.946 176.694 174.341C179.259 175.267 181.921 175.786 184.52 176.229L184.657 176.252C187.456 176.728 189.34 179.383 188.864 182.183C188.388 184.982 185.733 186.866 182.933 186.39C182.5 186.316 182.066 186.179 181.682 186.008C178.689 184.659 175.786 183.214 173.144 181.396C171.788 180.554 170.545 179.548 169.286 178.604C168.082 177.579 166.857 176.604 165.754 175.495C163.489 173.355 161.439 171.04 159.611 168.594C157.779 166.147 156.15 163.607 154.821 160.867C154.695 160.607 154.803 160.295 155.063 160.169C155.281 160.063 155.536 160.123 155.687 160.298L155.712 160.325Z" fill="url(#paint50_linear_11_38)"/>
<path d="M161.475 160.738C163.645 162.638 166.066 164.301 168.542 165.745C171.021 167.198 173.599 168.431 176.232 169.415C177.527 169.951 178.884 170.325 180.197 170.746C181.547 171.079 182.86 171.469 184.217 171.679C186.887 172.242 189.596 172.393 192.233 172.475L192.371 172.479C195.209 172.568 197.438 174.941 197.349 177.779C197.26 180.617 194.887 182.846 192.049 182.757C191.61 182.743 191.161 182.666 190.757 182.55C187.611 181.623 184.541 180.59 181.675 179.155C180.217 178.508 178.848 177.686 177.472 176.925C176.138 176.078 174.791 175.283 173.545 174.34C171.005 172.538 168.653 170.533 166.501 168.369C164.344 166.205 162.374 163.921 160.672 161.397C160.511 161.158 160.574 160.833 160.813 160.672C161.014 160.536 161.275 160.559 161.449 160.712L161.475 160.738Z" fill="url(#paint51_linear_11_38)"/>
<path d="M167.693 161.086C170.372 162.52 173.213 163.711 176.069 164.704C178.927 165.707 181.844 166.476 184.758 167.048C186.208 167.364 187.68 167.538 189.126 167.752L191.309 167.949C192.031 168.029 192.756 168.062 193.479 168.07C196.362 168.235 199.21 167.968 201.967 167.647L202.121 167.629C204.94 167.301 207.491 169.32 207.819 172.139C208.147 174.958 206.128 177.509 203.309 177.837C202.895 177.885 202.46 177.878 202.063 177.83C198.667 177.396 195.336 176.845 192.158 175.857C191.357 175.643 190.566 175.403 189.79 175.117L187.466 174.3C185.949 173.675 184.433 173.09 182.979 172.371C180.051 170.991 177.245 169.436 174.592 167.685C171.933 165.937 169.413 164.052 167.068 161.919C166.854 161.725 166.839 161.394 167.033 161.181C167.197 161 167.46 160.961 167.666 161.072L167.693 161.086Z" fill="url(#paint52_linear_11_38)"/>
<path d="M176.575 157.966C179.27 159.232 182.127 160.228 184.983 161.012C187.843 161.805 190.745 162.355 193.631 162.686C195.067 162.89 196.519 162.93 197.944 163.032C199.382 163.016 200.799 163.101 202.211 162.973C205.031 162.887 207.782 162.372 210.441 161.81L210.589 161.779C213.366 161.192 216.093 162.968 216.68 165.745C217.267 168.522 215.491 171.249 212.714 171.836C212.298 171.924 211.856 171.957 211.45 171.943C208.079 171.81 204.761 171.554 201.555 170.843C199.941 170.572 198.378 170.083 196.816 169.692C195.278 169.184 193.74 168.736 192.26 168.127C189.28 166.987 186.418 165.639 183.702 164.081C180.982 162.526 178.4 160.815 175.993 158.828C175.77 158.644 175.739 158.315 175.923 158.092C176.078 157.904 176.337 157.852 176.548 157.951L176.575 157.966Z" fill="url(#paint53_linear_11_38)"/>
<path d="M184.626 154.479C187.628 155.262 190.721 155.797 193.79 156.158C196.863 156.523 199.942 156.677 202.983 156.656C206.023 156.654 209.034 156.414 211.964 155.973C214.905 155.593 217.735 154.818 220.47 154.006L220.613 153.964C223.333 153.157 226.191 154.707 226.998 157.427C227.805 160.146 226.255 163.005 223.535 163.812C223.142 163.929 222.72 163.996 222.328 164.018C218.871 164.189 215.461 164.243 212.12 163.869C208.779 163.556 205.506 163.011 202.321 162.229C199.133 161.465 196.021 160.526 193.001 159.39C189.978 158.255 187.049 156.973 184.219 155.438C183.965 155.3 183.871 154.983 184.009 154.729C184.126 154.513 184.373 154.413 184.6 154.472L184.626 154.479Z" fill="url(#paint54_linear_11_38)"/>
<path d="M197.018 149.038C199.967 149.026 202.941 148.865 205.863 148.612C208.79 148.354 211.684 147.984 214.515 147.506C217.346 147.013 220.104 146.377 222.74 145.624C225.361 144.832 227.831 143.873 230.018 142.772C234.07 140.733 239.008 142.364 241.048 146.416C243.087 150.468 241.456 155.406 237.404 157.445C236.372 157.965 235.282 158.246 234.197 158.31L233.741 158.333C230.189 158.526 226.823 158.367 223.579 158.005C220.345 157.598 217.219 157.031 214.173 156.318C211.13 155.59 208.159 154.749 205.247 153.803C202.332 152.851 199.486 151.82 196.672 150.638C196.248 150.46 196.049 149.972 196.227 149.548C196.36 149.231 196.667 149.04 196.99 149.038H197.018Z" fill="url(#paint55_linear_11_38)"/>
<path d="M207.435 147.666C210.721 147.133 213.996 146.428 217.217 145.632C220.441 144.83 223.619 143.909 226.732 142.877C229.84 141.829 232.866 140.633 235.778 139.317C238.668 137.96 241.41 136.435 243.9 134.753L243.909 134.747C246.255 133.163 249.441 133.781 251.024 136.127C252.608 138.473 251.99 141.659 249.644 143.243C249.322 143.46 248.959 143.645 248.612 143.78C245.137 145.113 241.67 146.087 238.216 146.828C234.756 147.521 231.316 148.03 227.888 148.368C224.458 148.688 221.044 148.874 217.642 148.931C214.238 148.982 210.857 148.931 207.469 148.706C207.181 148.687 206.962 148.437 206.982 148.149C206.999 147.901 207.185 147.705 207.42 147.667L207.435 147.666Z" fill="url(#paint56_linear_11_38)"/>
<path d="M217.072 142.242C220.456 141.575 223.791 140.495 226.97 139.202C230.157 137.913 233.212 136.365 236.077 134.582C236.802 134.153 237.514 133.708 238.196 133.215C238.884 132.733 239.582 132.277 240.252 131.781C241.559 130.738 242.898 129.77 244.095 128.628C246.598 126.489 248.738 124.006 250.766 121.531L250.881 121.391C252.677 119.2 255.909 118.88 258.1 120.676C260.291 122.472 260.611 125.704 258.815 127.895C258.585 128.176 258.309 128.442 258.037 128.661C255.022 131.054 251.954 133.311 248.628 135.095C247.016 136.062 245.294 136.82 243.625 137.633C242.776 138.013 241.906 138.345 241.052 138.699C240.203 139.064 239.333 139.375 238.457 139.664C234.986 140.89 231.441 141.799 227.874 142.404C224.304 143.013 220.736 143.362 217.127 143.282C216.839 143.276 216.611 143.037 216.617 142.749C216.622 142.5 216.802 142.295 217.037 142.249L217.072 142.242Z" fill="url(#paint57_linear_11_38)"/>
<path d="M220.777 136.416C224.032 135.277 227.181 133.738 230.145 132.011C233.119 130.286 235.927 128.327 238.515 126.161C239.174 125.636 239.816 125.094 240.424 124.512C241.038 123.939 241.667 123.391 242.261 122.806C243.412 121.592 244.603 120.447 245.632 119.151C247.816 116.686 249.597 113.932 251.269 111.202L251.363 111.049C252.843 108.633 256 107.874 258.416 109.354C260.832 110.834 261.591 113.991 260.111 116.407C259.921 116.717 259.684 117.018 259.444 117.273C256.787 120.052 254.058 122.706 251.014 124.93C249.552 126.109 247.953 127.098 246.414 128.133C245.627 128.627 244.812 129.076 244.016 129.546C243.226 130.024 242.409 130.454 241.582 130.862C238.318 132.56 234.937 133.954 231.491 135.054C228.044 136.159 224.561 137.006 220.979 137.438C220.693 137.473 220.433 137.268 220.399 136.982C220.369 136.734 220.518 136.506 220.744 136.427L220.777 136.416Z" fill="url(#paint58_linear_11_38)"/>
<path d="M224.679 130.067C227.745 128.122 230.646 125.866 233.36 123.476C236.084 121.089 238.603 118.503 240.92 115.8C242.106 114.473 243.158 113.038 244.239 111.652L245.739 109.485L246.478 108.404L247.153 107.283C249.039 104.358 250.459 101.209 251.773 98.1087L251.848 97.9307C252.953 95.3237 255.962 94.1066 258.569 95.2116C261.176 96.3166 262.393 99.3257 261.288 101.933C261.153 102.251 260.974 102.57 260.787 102.845C258.505 106.15 256.136 109.337 253.386 112.132L252.386 113.202L251.332 114.215L249.219 116.214C247.743 117.468 246.309 118.747 244.765 119.887C241.729 122.221 238.571 124.337 235.285 126.189C232 128.048 228.639 129.691 225.116 131.012C224.846 131.113 224.545 130.976 224.444 130.706C224.356 130.471 224.449 130.212 224.653 130.082L224.679 130.067Z" fill="url(#paint59_linear_11_38)"/>
<path d="M226.422 118.964C229.325 116.904 232.033 114.519 234.531 112.006C237.039 109.495 239.324 106.794 241.376 103.976C242.439 102.596 243.34 101.103 244.292 99.6728C245.128 98.1598 246.059 96.7248 246.765 95.1688C248.354 92.1588 249.458 88.9628 250.462 85.8218L250.52 85.6388C251.382 82.9408 254.268 81.4528 256.965 82.3148C259.663 83.1768 261.151 86.0628 260.289 88.7598C260.182 89.0948 260.029 89.4348 259.864 89.7308C257.912 93.1708 255.859 96.5008 253.386 99.4738C252.232 101.018 250.877 102.391 249.623 103.821C248.259 105.16 246.958 106.535 245.518 107.762C242.708 110.28 239.74 112.567 236.627 114.589C233.514 116.617 230.306 118.421 226.905 119.886C226.64 120 226.333 119.878 226.219 119.613C226.12 119.383 226.199 119.121 226.396 118.981L226.422 118.964Z" fill="url(#paint60_linear_11_38)"/>
<path d="M227.322 108.52C229.897 105.855 232.264 102.954 234.441 99.9707C236.624 96.9857 238.594 93.8697 240.363 90.6847C241.273 89.1067 242.055 87.4647 242.857 85.8507C243.241 85.0347 243.584 84.1997 243.948 83.3807L244.485 82.1497L244.955 80.8937C246.3 77.5877 247.172 74.1577 247.952 70.7927L247.994 70.6137C248.633 67.8557 251.386 66.1387 254.144 66.7767C256.902 67.4157 258.619 70.1687 257.981 72.9267C257.904 73.2567 257.785 73.5977 257.652 73.8957C255.966 77.5947 254.184 81.1937 251.985 84.4947L251.194 85.7477L250.342 86.9577C249.77 87.7597 249.22 88.5716 248.632 89.3556C247.426 90.9016 246.248 92.4517 244.959 93.9067C242.429 96.8497 239.751 99.6237 236.914 102.197C234.077 104.773 231.13 107.176 227.974 109.333C227.736 109.496 227.411 109.435 227.249 109.197C227.107 108.989 227.136 108.714 227.304 108.54L227.322 108.52Z" fill="url(#paint61_linear_11_38)"/>
<path d="M228.661 92.4417C230.41 89.4007 232.017 86.2487 233.505 83.0887C234.99 79.9227 236.342 76.7197 237.552 73.5097C238.746 70.2927 239.755 67.0567 240.579 63.8617C241.354 60.6587 241.878 57.4947 242.097 54.4987C242.424 50.0157 246.323 46.6477 250.805 46.9737C255.288 47.3007 258.657 51.1997 258.33 55.6817C258.261 56.6287 258.033 57.5257 257.673 58.3487L257.566 58.5857C255.901 62.3547 253.969 65.7767 251.882 68.9837C249.754 72.1557 247.51 75.1447 245.152 77.9817C242.779 80.8067 240.324 83.5037 237.786 86.0877C235.24 88.6697 232.644 91.1457 229.907 93.5017C229.561 93.7997 229.038 93.7607 228.739 93.4147C228.504 93.1417 228.478 92.7587 228.648 92.4627L228.661 92.4417Z" fill="url(#paint62_linear_11_38)"/>
<path d="M134.285 223.757C134.285 223.757 148.264 239.369 162.172 250.614C162.172 250.614 131.348 251.828 124.533 253.093" stroke="#382D27" stroke-width="6" stroke-miterlimit="10" stroke-linecap="round" stroke-linejoin="round"/>
<path d="M94.379 246.461L126.822 255.165L125.059 252.143C125.059 252.143 103.446 243.599 100.612 244.012C97.777 244.424 94.379 246.461 94.379 246.461Z" fill="#382D27"/>
<path d="M105.59 239.742L127.272 255.428L126.663 251.983C126.663 251.983 115.087 240.193 112.285 239.6C109.483 239.007 105.59 239.742 105.59 239.742Z" fill="#382D27"/>
<path d="M138.142 265.266L122.879 252.709L127.081 252.617C127.081 252.617 135.932 257.279 137 259.936C138.069 262.593 138.142 265.266 138.142 265.266Z" fill="#382D27"/>
<path d="M105.59 259.683L126.821 255.521L123.871 253.55C123.871 253.55 112.833 253.525 110.382 255.006C107.932 256.487 105.59 259.683 105.59 259.683Z" fill="#382D27"/>
<path opacity="0.5" d="M28.162 127.783C28.329 128.334 27.58 129.049 26.489 129.38C25.398 129.711 24.378 129.532 24.21 128.981C24.043 128.43 24.792 127.715 25.883 127.384C26.974 127.054 27.994 127.232 28.162 127.783Z" fill="#9B2C2C"/>
<defs>
<linearGradient id="paint0_linear_11_38" x1="170.575" y1="75.4893" x2="212.564" y2="62.6926" gradientUnits="userSpaceOnUse">
<stop stop-color="#EBE6D6"/>
<stop offset="0.0574" stop-color="#E8D5C4"/>
<stop offset="0.2247" stop-color="#DFA994"/>
<stop offset="0.3911" stop-color="#D8846C"/>
<stop offset="0.554" stop-color="#D3674D"/>
<stop offset="0.712" stop-color="#CF5337"/>
<stop offset="0.8632" stop-color="#CD462A"/>
<stop offset="1" stop-color="#CC4225"/>
</linearGradient>
<linearGradient id="paint1_linear_11_38" x1="170.73" y1="67.0731" x2="209.799" y2="47.2573" gradientUnits="userSpaceOnUse">
<stop stop-color="#EBE6D6"/>
<stop offset="0.0574" stop-color="#E8D5C4"/>
<stop offset="0.2247" stop-color="#DFA994"/>
<stop offset="0.3911" stop-color="#D8846C"/>
<stop offset="0.554" stop-color="#D3674D"/>
<stop offset="0.712" stop-color="#CF5337"/>
<stop offset="0.8632" stop-color="#CD462A"/>
<stop offset="1" stop-color="#CC4225"/>
</linearGradient>
<linearGradient id="paint2_linear_11_38" x1="167.823" y1="62.8877" x2="203.761" y2="37.9681" gradientUnits="userSpaceOnUse">
<stop stop-color="#EBE6D6"/>
<stop offset="0.0574" stop-color="#E8D5C4"/>
<stop offset="0.2247" stop-color="#DFA994"/>
<stop offset="0.3911" stop-color="#D8846C"/>
<stop offset="0.554" stop-color="#D3674D"/>
<stop offset="0.712" stop-color="#CF5337"/>
<stop offset="0.8632" stop-color="#CD462A"/>
<stop offset="1" stop-color="#CC4225"/>
</linearGradient>
<linearGradient id="paint3_linear_11_38" x1="164.169" y1="57.9527" x2="196.339" y2="27.3027" gradientUnits="userSpaceOnUse">
<stop stop-color="#EBE6D6"/>
<stop offset="0.0574" stop-color="#E8D5C4"/>
<stop offset="0.2247" stop-color="#DFA994"/>
<stop offset="0.3911" stop-color="#D8846C"/>
<stop offset="0.554" stop-color="#D3674D"/>
<stop offset="0.712" stop-color="#CF5337"/>
<stop offset="0.8632" stop-color="#CD462A"/>
<stop offset="1" stop-color="#CC4225"/>
</linearGradient>
<linearGradient id="paint4_linear_11_38" x1="157.718" y1="51.535" x2="186.931" y2="18.2163" gradientUnits="userSpaceOnUse">
<stop stop-color="#EBE6D6"/>
<stop offset="0.0574" stop-color="#E8D5C4"/>
<stop offset="0.2247" stop-color="#DFA994"/>
<stop offset="0.3911" stop-color="#D8846C"/>
<stop offset="0.554" stop-color="#D3674D"/>
<stop offset="0.712" stop-color="#CF5337"/>
<stop offset="0.8632" stop-color="#CD462A"/>
<stop offset="1" stop-color="#CC4225"/>
</linearGradient>
<linearGradient id="paint5_linear_11_38" x1="149.989" y1="44.879" x2="176.187" y2="9.35408" gradientUnits="userSpaceOnUse">
<stop stop-color="#EBE6D6"/>
<stop offset="0.0574" stop-color="#E8D5C4"/>
<stop offset="0.2247" stop-color="#DFA994"/>
<stop offset="0.3911" stop-color="#D8846C"/>
<stop offset="0.554" stop-color="#D3674D"/>
<stop offset="0.712" stop-color="#CF5337"/>
<stop offset="0.8632" stop-color="#CD462A"/>
<stop offset="1" stop-color="#CC4225"/>
</linearGradient>
<linearGradient id="paint6_linear_11_38" x1="140.03" y1="161.044" x2="154.361" y2="193.285" gradientUnits="userSpaceOnUse">
<stop stop-color="#EBE6D6"/>
<stop offset="0.0574" stop-color="#E8D5C4"/>
<stop offset="0.2247" stop-color="#DFA994"/>
<stop offset="0.3911" stop-color="#D8846C"/>
<stop offset="0.554" stop-color="#D3674D"/>
<stop offset="0.712" stop-color="#CF5337"/>
<stop offset="0.8632" stop-color="#CD462A"/>
<stop offset="1" stop-color="#CC4225"/>
</linearGradient>
<linearGradient id="paint7_linear_11_38" x1="148.093" y1="160.225" x2="167.732" y2="189.441" gradientUnits="userSpaceOnUse">
<stop stop-color="#EBE6D6"/>
<stop offset="0.0574" stop-color="#E8D5C4"/>
<stop offset="0.2247" stop-color="#DFA994"/>
<stop offset="0.3911" stop-color="#D8846C"/>
<stop offset="0.554" stop-color="#D3674D"/>
<stop offset="0.712" stop-color="#CF5337"/>
<stop offset="0.8632" stop-color="#CD462A"/>
<stop offset="1" stop-color="#CC4225"/>
</linearGradient>
<linearGradient id="paint8_linear_11_38" x1="151.844" y1="157.128" x2="175.242" y2="183.34" gradientUnits="userSpaceOnUse">
<stop stop-color="#EBE6D6"/>
<stop offset="0.0574" stop-color="#E8D5C4"/>
<stop offset="0.2247" stop-color="#DFA994"/>
<stop offset="0.3911" stop-color="#D8846C"/>
<stop offset="0.554" stop-color="#D3674D"/>
<stop offset="0.712" stop-color="#CF5337"/>
<stop offset="0.8632" stop-color="#CD462A"/>
<stop offset="1" stop-color="#CC4225"/>
</linearGradient>
<linearGradient id="paint9_linear_11_38" x1="156.224" y1="153.213" x2="183.873" y2="175.901" gradientUnits="userSpaceOnUse">
<stop stop-color="#EBE6D6"/>
<stop offset="0.0574" stop-color="#E8D5C4"/>
<stop offset="0.2247" stop-color="#DFA994"/>
<stop offset="0.3911" stop-color="#D8846C"/>
<stop offset="0.554" stop-color="#D3674D"/>
<stop offset="0.712" stop-color="#CF5337"/>
<stop offset="0.8632" stop-color="#CD462A"/>
<stop offset="1" stop-color="#CC4225"/>
</linearGradient>
<linearGradient id="paint10_linear_11_38" x1="161.447" y1="146.664" x2="190.929" y2="166.722" gradientUnits="userSpaceOnUse">
<stop stop-color="#EBE6D6"/>
<stop offset="0.0574" stop-color="#E8D5C4"/>
<stop offset="0.2247" stop-color="#DFA994"/>
<stop offset="0.3911" stop-color="#D8846C"/>
<stop offset="0.554" stop-color="#D3674D"/>
<stop offset="0.712" stop-color="#CF5337"/>
<stop offset="0.8632" stop-color="#CD462A"/>
<stop offset="1" stop-color="#CC4225"/>
</linearGradient>
<linearGradient id="paint11_linear_11_38" x1="166.727" y1="138.931" x2="197.66" y2="156.355" gradientUnits="userSpaceOnUse">
<stop stop-color="#EBE6D6"/>
<stop offset="0.0574" stop-color="#E8D5C4"/>
<stop offset="0.2247" stop-color="#DFA994"/>
<stop offset="0.3911" stop-color="#D8846C"/>
<stop offset="0.554" stop-color="#D3674D"/>
<stop offset="0.712" stop-color="#CF5337"/>
<stop offset="0.8632" stop-color="#CD462A"/>
<stop offset="1" stop-color="#CC4225"/>
</linearGradient>
<linearGradient id="paint12_linear_11_38" x1="169.937" y1="128.108" x2="210.135" y2="141.484" gradientUnits="userSpaceOnUse">
<stop stop-color="#EBE6D6"/>
<stop offset="0.0574" stop-color="#E8D5C4"/>
<stop offset="0.2247" stop-color="#DFA994"/>
<stop offset="0.3911" stop-color="#D8846C"/>
<stop offset="0.554" stop-color="#D3674D"/>
<stop offset="0.712" stop-color="#CF5337"/>
<stop offset="0.8632" stop-color="#CD462A"/>
<stop offset="1" stop-color="#CC4225"/>
</linearGradient>
<linearGradient id="paint13_linear_11_38" x1="174.586" y1="121.778" x2="216.409" y2="127.999" gradientUnits="userSpaceOnUse">
<stop stop-color="#EBE6D6"/>
<stop offset="0.0574" stop-color="#E8D5C4"/>
<stop offset="0.2247" stop-color="#DFA994"/>
<stop offset="0.3911" stop-color="#D8846C"/>
<stop offset="0.554" stop-color="#D3674D"/>
<stop offset="0.712" stop-color="#CF5337"/>
<stop offset="0.8632" stop-color="#CD462A"/>
<stop offset="1" stop-color="#CC4225"/>
</linearGradient>
<linearGradient id="paint14_linear_11_38" x1="174.588" y1="117.018" x2="216.798" y2="117.473" gradientUnits="userSpaceOnUse">
<stop stop-color="#EBE6D6"/>
<stop offset="0.0574" stop-color="#E8D5C4"/>
<stop offset="0.2247" stop-color="#DFA994"/>
<stop offset="0.3911" stop-color="#D8846C"/>
<stop offset="0.554" stop-color="#D3674D"/>
<stop offset="0.712" stop-color="#CF5337"/>
<stop offset="0.8632" stop-color="#CD462A"/>
<stop offset="1" stop-color="#CC4225"/>
</linearGradient>
<linearGradient id="paint15_linear_11_38" x1="174.432" y1="111.313" x2="216.862" y2="105.154" gradientUnits="userSpaceOnUse">
<stop stop-color="#EBE6D6"/>
<stop offset="0.0574" stop-color="#E8D5C4"/>
<stop offset="0.2247" stop-color="#DFA994"/>
<stop offset="0.3911" stop-color="#D8846C"/>
<stop offset="0.554" stop-color="#D3674D"/>
<stop offset="0.712" stop-color="#CF5337"/>
<stop offset="0.8632" stop-color="#CD462A"/>
<stop offset="1" stop-color="#CC4225"/>
</linearGradient>
<linearGradient id="paint16_linear_11_38" x1="172.619" y1="100.368" x2="213.964" y2="90.5174" gradientUnits="userSpaceOnUse">
<stop stop-color="#EBE6D6"/>
<stop offset="0.0574" stop-color="#E8D5C4"/>
<stop offset="0.2247" stop-color="#DFA994"/>
<stop offset="0.3911" stop-color="#D8846C"/>
<stop offset="0.554" stop-color="#D3674D"/>
<stop offset="0.712" stop-color="#CF5337"/>
<stop offset="0.8632" stop-color="#CD462A"/>
<stop offset="1" stop-color="#CC4225"/>
</linearGradient>
<linearGradient id="paint17_linear_11_38" x1="175.812" y1="84.397" x2="212.298" y2="84.2908" gradientUnits="userSpaceOnUse">
<stop stop-color="#EBE6D6"/>
<stop offset="0.0574" stop-color="#E8D5C4"/>
<stop offset="0.2247" stop-color="#DFA994"/>
<stop offset="0.3911" stop-color="#D8846C"/>
<stop offset="0.554" stop-color="#D3674D"/>
<stop offset="0.712" stop-color="#CF5337"/>
<stop offset="0.8632" stop-color="#CD462A"/>
<stop offset="1" stop-color="#CC4225"/>
</linearGradient>
<linearGradient id="paint18_linear_11_38" x1="104.748" y1="31.7757" x2="168.672" y2="175.582" gradientUnits="userSpaceOnUse">
<stop stop-color="#CC2F41"/>
<stop offset="0.0835" stop-color="#CC3B3E"/>
<stop offset="0.2967" stop-color="#CC5537"/>
<stop offset="0.5169" stop-color="#CC6733"/>
<stop offset="0.7465" stop-color="#CC7230"/>
<stop offset="1" stop-color="#CC762F"/>
</linearGradient>
<linearGradient id="paint19_linear_11_38" x1="238.795" y1="196.124" x2="238.795" y2="359.64" gradientUnits="userSpaceOnUse">
<stop stop-color="#4A559B"/>
<stop offset="0.2599" stop-color="#5B65A2"/>
<stop offset="0.7165" stop-color="#727BAC"/>
<stop offset="1" stop-color="#7B83B0"/>
</linearGradient>
<linearGradient id="paint20_linear_11_38" x1="193.033" y1="196.124" x2="193.033" y2="344.673" gradientUnits="userSpaceOnUse">
<stop stop-color="#4A559B"/>
<stop offset="0.2599" stop-color="#5B65A2"/>
<stop offset="0.7165" stop-color="#727BAC"/>
<stop offset="1" stop-color="#7B83B0"/>
</linearGradient>
<linearGradient id="paint21_linear_11_38" x1="158.153" y1="178.085" x2="158.153" y2="319.722" gradientUnits="userSpaceOnUse">
<stop stop-color="#4A559B"/>
<stop offset="0.2599" stop-color="#5B65A2"/>
<stop offset="0.7165" stop-color="#727BAC"/>
<stop offset="1" stop-color="#7B83B0"/>
</linearGradient>
<linearGradient id="paint22_linear_11_38" x1="193.1" y1="183.467" x2="193.1" y2="257.48" gradientUnits="userSpaceOnUse">
<stop stop-color="#4A559B"/>
<stop offset="0.2599" stop-color="#5B65A2"/>
<stop offset="0.7165" stop-color="#727BAC"/>
<stop offset="1" stop-color="#7B83B0"/>
</linearGradient>
<linearGradient id="paint23_linear_11_38" x1="221.592" y1="190.37" x2="221.592" y2="314.427" gradientUnits="userSpaceOnUse">
<stop stop-color="#4A559B"/>
<stop offset="0.2599" stop-color="#5B65A2"/>
<stop offset="0.7165" stop-color="#727BAC"/>
<stop offset="1" stop-color="#7B83B0"/>
</linearGradient>
<linearGradient id="paint24_linear_11_38" x1="159.175" y1="153.284" x2="108.118" y2="228.189" gradientUnits="userSpaceOnUse">
<stop stop-color="#E04125"/>
<stop offset="0.1782" stop-color="#E06025"/>
<stop offset="0.3693" stop-color="#E07A25"/>
<stop offset="0.5668" stop-color="#E08C25"/>
<stop offset="0.7726" stop-color="#E09725"/>
<stop offset="1" stop-color="#E09B25"/>
</linearGradient>
<linearGradient id="paint25_linear_11_38" x1="73.5235" y1="116.81" x2="118.832" y2="183.718" gradientUnits="userSpaceOnUse">
<stop stop-color="#E04125"/>
<stop offset="0.1782" stop-color="#E06025"/>
<stop offset="0.3693" stop-color="#E07A25"/>
<stop offset="0.5668" stop-color="#E08C25"/>
<stop offset="0.7726" stop-color="#E09725"/>
<stop offset="1" stop-color="#E09B25"/>
</linearGradient>
<linearGradient id="paint26_linear_11_38" x1="69.9437" y1="111.74" x2="50.4004" y2="160.873" gradientUnits="userSpaceOnUse">
<stop stop-color="#E04125"/>
<stop offset="0.1782" stop-color="#E06025"/>
<stop offset="0.3693" stop-color="#E07A25"/>
<stop offset="0.5668" stop-color="#E08C25"/>
<stop offset="0.7726" stop-color="#E09725"/>
<stop offset="1" stop-color="#E09B25"/>
</linearGradient>
<linearGradient id="paint27_linear_11_38" x1="0.0005" y1="137.126" x2="40.0558" y2="137.126" gradientUnits="userSpaceOnUse">
<stop stop-color="#4A559B"/>
<stop offset="0.2599" stop-color="#5B65A2"/>
<stop offset="0.7165" stop-color="#727BAC"/>
<stop offset="1" stop-color="#7B83B0"/>
</linearGradient>
<linearGradient id="paint28_linear_11_38" x1="198.12" y1="29.0157" x2="198.12" y2="186.391" gradientUnits="userSpaceOnUse">
<stop stop-color="#E04125"/>
<stop offset="0.1782" stop-color="#E06025"/>
<stop offset="0.3693" stop-color="#E07A25"/>
<stop offset="0.5668" stop-color="#E08C25"/>
<stop offset="0.7726" stop-color="#E09725"/>
<stop offset="1" stop-color="#E09B25"/>
</linearGradient>
<linearGradient id="paint29_linear_11_38" x1="240.516" y1="95.6998" x2="284.082" y2="101.061" gradientUnits="userSpaceOnUse">
<stop stop-color="#FFFCD7"/>
<stop offset="0.0903" stop-color="#FAE4B9"/>
<stop offset="0.2517" stop-color="#F2BD89"/>
<stop offset="0.4124" stop-color="#EC9D61"/>
<stop offset="0.5696" stop-color="#E78442"/>
<stop offset="0.7221" stop-color="#E3722C"/>
<stop offset="0.868" stop-color="#E1681F"/>
<stop offset="1" stop-color="#E0641A"/>
</linearGradient>
<linearGradient id="paint30_linear_11_38" x1="244.076" y1="88.0716" x2="287.825" y2="85.8332" gradientUnits="userSpaceOnUse">
<stop stop-color="#FFFCD7"/>
<stop offset="0.0903" stop-color="#FAE4B9"/>
<stop offset="0.2517" stop-color="#F2BD89"/>
<stop offset="0.4124" stop-color="#EC9D61"/>
<stop offset="0.5696" stop-color="#E78442"/>
<stop offset="0.7221" stop-color="#E3722C"/>
<stop offset="0.868" stop-color="#E1681F"/>
<stop offset="1" stop-color="#E0641A"/>
</linearGradient>
<linearGradient id="paint31_linear_11_38" x1="243.119" y1="83.0663" x2="286.081" y2="74.892" gradientUnits="userSpaceOnUse">
<stop stop-color="#FFFCD7"/>
<stop offset="0.0903" stop-color="#FAE4B9"/>
<stop offset="0.2517" stop-color="#F2BD89"/>
<stop offset="0.4124" stop-color="#EC9D61"/>
<stop offset="0.5696" stop-color="#E78442"/>
<stop offset="0.7221" stop-color="#E3722C"/>
<stop offset="0.868" stop-color="#E1681F"/>
<stop offset="1" stop-color="#E0641A"/>
</linearGradient>
<linearGradient id="paint32_linear_11_38" x1="241.784" y1="77.0723" x2="283.631" y2="62.1315" gradientUnits="userSpaceOnUse">
<stop stop-color="#FFFCD7"/>
<stop offset="0.0903" stop-color="#FAE4B9"/>
<stop offset="0.2517" stop-color="#F2BD89"/>
<stop offset="0.4124" stop-color="#EC9D61"/>
<stop offset="0.5696" stop-color="#E78442"/>
<stop offset="0.7221" stop-color="#E3722C"/>
<stop offset="0.868" stop-color="#E1681F"/>
<stop offset="1" stop-color="#E0641A"/>
</linearGradient>
<linearGradient id="paint33_linear_11_38" x1="238.496" y1="68.5878" x2="278.725" y2="50.0073" gradientUnits="userSpaceOnUse">
<stop stop-color="#FFFCD7"/>
<stop offset="0.0903" stop-color="#FAE4B9"/>
<stop offset="0.2517" stop-color="#F2BD89"/>
<stop offset="0.4124" stop-color="#EC9D61"/>
<stop offset="0.5696" stop-color="#E78442"/>
<stop offset="0.7221" stop-color="#E3722C"/>
<stop offset="0.868" stop-color="#E1681F"/>
<stop offset="1" stop-color="#E0641A"/>
</linearGradient>
<linearGradient id="paint34_linear_11_38" x1="234.137" y1="59.3662" x2="272.506" y2="37.5451" gradientUnits="userSpaceOnUse">
<stop stop-color="#FFFCD7"/>
<stop offset="0.0903" stop-color="#FAE4B9"/>
<stop offset="0.2517" stop-color="#F2BD89"/>
<stop offset="0.4124" stop-color="#EC9D61"/>
<stop offset="0.5696" stop-color="#E78442"/>
<stop offset="0.7221" stop-color="#E3722C"/>
<stop offset="0.868" stop-color="#E1681F"/>
<stop offset="1" stop-color="#E0641A"/>
</linearGradient>
<linearGradient id="paint35_linear_11_38" x1="98.2758" y1="161.804" x2="98.2758" y2="219.427" gradientUnits="userSpaceOnUse">
<stop stop-color="#FFFCD7"/>
<stop offset="0.1114" stop-color="#F9EEBC"/>
<stop offset="0.3007" stop-color="#F0D895"/>
<stop offset="0.4877" stop-color="#E9C876"/>
<stop offset="0.6692" stop-color="#E4BC60"/>
<stop offset="0.8429" stop-color="#E1B453"/>
<stop offset="1" stop-color="#E0B24E"/>
</linearGradient>
<linearGradient id="paint36_linear_11_38" x1="177.853" y1="161.472" x2="177.853" y2="196.754" gradientUnits="userSpaceOnUse">
<stop stop-color="#FFFCD7"/>
<stop offset="0.0903" stop-color="#FAE4B9"/>
<stop offset="0.2517" stop-color="#F2BD89"/>
<stop offset="0.4124" stop-color="#EC9D61"/>
<stop offset="0.5696" stop-color="#E78442"/>
<stop offset="0.7221" stop-color="#E3722C"/>
<stop offset="0.868" stop-color="#E1681F"/>
<stop offset="1" stop-color="#E0641A"/>
</linearGradient>
<linearGradient id="paint37_linear_11_38" x1="185.553" y1="163.998" x2="191.633" y2="198.673" gradientUnits="userSpaceOnUse">
<stop stop-color="#FFFCD7"/>
<stop offset="0.0903" stop-color="#FAE4B9"/>
<stop offset="0.2517" stop-color="#F2BD89"/>
<stop offset="0.4124" stop-color="#EC9D61"/>
<stop offset="0.5696" stop-color="#E78442"/>
<stop offset="0.7221" stop-color="#E3722C"/>
<stop offset="0.868" stop-color="#E1681F"/>
<stop offset="1" stop-color="#E0641A"/>
</linearGradient>
<linearGradient id="paint38_linear_11_38" x1="190.239" y1="162.692" x2="200.973" y2="196.149" gradientUnits="userSpaceOnUse">
<stop stop-color="#FFFCD7"/>
<stop offset="0.0903" stop-color="#FAE4B9"/>
<stop offset="0.2517" stop-color="#F2BD89"/>
<stop offset="0.4124" stop-color="#EC9D61"/>
<stop offset="0.5696" stop-color="#E78442"/>
<stop offset="0.7221" stop-color="#E3722C"/>
<stop offset="0.868" stop-color="#E1681F"/>
<stop offset="1" stop-color="#E0641A"/>
</linearGradient>
<linearGradient id="paint39_linear_11_38" x1="195.831" y1="160.893" x2="211.882" y2="192.856" gradientUnits="userSpaceOnUse">
<stop stop-color="#FFFCD7"/>
<stop offset="0.0903" stop-color="#FAE4B9"/>
<stop offset="0.2517" stop-color="#F2BD89"/>
<stop offset="0.4124" stop-color="#EC9D61"/>
<stop offset="0.5696" stop-color="#E78442"/>
<stop offset="0.7221" stop-color="#E3722C"/>
<stop offset="0.868" stop-color="#E1681F"/>
<stop offset="1" stop-color="#E0641A"/>
</linearGradient>
<linearGradient id="paint40_linear_11_38" x1="203.264" y1="157.031" x2="222.058" y2="187.334" gradientUnits="userSpaceOnUse">
<stop stop-color="#FFFCD7"/>
<stop offset="0.0903" stop-color="#FAE4B9"/>
<stop offset="0.2517" stop-color="#F2BD89"/>
<stop offset="0.4124" stop-color="#EC9D61"/>
<stop offset="0.5696" stop-color="#E78442"/>
<stop offset="0.7221" stop-color="#E3722C"/>
<stop offset="0.868" stop-color="#E1681F"/>
<stop offset="1" stop-color="#E0641A"/>
</linearGradient>
<linearGradient id="paint41_linear_11_38" x1="211.23" y1="152.109" x2="232.42" y2="180.596" gradientUnits="userSpaceOnUse">
<stop stop-color="#FFFCD7"/>
<stop offset="0.0903" stop-color="#FAE4B9"/>
<stop offset="0.2517" stop-color="#F2BD89"/>
<stop offset="0.4124" stop-color="#EC9D61"/>
<stop offset="0.5696" stop-color="#E78442"/>
<stop offset="0.7221" stop-color="#E3722C"/>
<stop offset="0.868" stop-color="#E1681F"/>
<stop offset="1" stop-color="#E0641A"/>
</linearGradient>
<linearGradient id="paint42_linear_11_38" x1="218.559" y1="143.523" x2="249.859" y2="172.074" gradientUnits="userSpaceOnUse">
<stop stop-color="#FFFCD7"/>
<stop offset="0.0903" stop-color="#FAE4B9"/>
<stop offset="0.2517" stop-color="#F2BD89"/>
<stop offset="0.4124" stop-color="#EC9D61"/>
<stop offset="0.5696" stop-color="#E78442"/>
<stop offset="0.7221" stop-color="#E3722C"/>
<stop offset="0.868" stop-color="#E1681F"/>
<stop offset="1" stop-color="#E0641A"/>
</linearGradient>
<linearGradient id="paint43_linear_11_38" x1="225.379" y1="139.627" x2="261.07" y2="162.299" gradientUnits="userSpaceOnUse">
<stop stop-color="#FFFCD7"/>
<stop offset="0.0903" stop-color="#FAE4B9"/>
<stop offset="0.2517" stop-color="#F2BD89"/>
<stop offset="0.4124" stop-color="#EC9D61"/>
<stop offset="0.5696" stop-color="#E78442"/>
<stop offset="0.7221" stop-color="#E3722C"/>
<stop offset="0.868" stop-color="#E1681F"/>
<stop offset="1" stop-color="#E0641A"/>
</linearGradient>
<linearGradient id="paint44_linear_11_38" x1="227.314" y1="135.278" x2="265.701" y2="152.838" gradientUnits="userSpaceOnUse">
<stop stop-color="#FFFCD7"/>
<stop offset="0.0903" stop-color="#FAE4B9"/>
<stop offset="0.2517" stop-color="#F2BD89"/>
<stop offset="0.4124" stop-color="#EC9D61"/>
<stop offset="0.5696" stop-color="#E78442"/>
<stop offset="0.7221" stop-color="#E3722C"/>
<stop offset="0.868" stop-color="#E1681F"/>
<stop offset="1" stop-color="#E0641A"/>
</linearGradient>
<linearGradient id="paint45_linear_11_38" x1="229.489" y1="130.001" x2="270.763" y2="141.608" gradientUnits="userSpaceOnUse">
<stop stop-color="#FFFCD7"/>
<stop offset="0.0903" stop-color="#FAE4B9"/>
<stop offset="0.2517" stop-color="#F2BD89"/>
<stop offset="0.4124" stop-color="#EC9D61"/>
<stop offset="0.5696" stop-color="#E78442"/>
<stop offset="0.7221" stop-color="#E3722C"/>
<stop offset="0.868" stop-color="#E1681F"/>
<stop offset="1" stop-color="#E0641A"/>
</linearGradient>
<linearGradient id="paint46_linear_11_38" x1="232.278" y1="119.264" x2="274.059" y2="127.056" gradientUnits="userSpaceOnUse">
<stop stop-color="#FFFCD7"/>
<stop offset="0.0903" stop-color="#FAE4B9"/>
<stop offset="0.2517" stop-color="#F2BD89"/>
<stop offset="0.4124" stop-color="#EC9D61"/>
<stop offset="0.5696" stop-color="#E78442"/>
<stop offset="0.7221" stop-color="#E3722C"/>
<stop offset="0.868" stop-color="#E1681F"/>
<stop offset="1" stop-color="#E0641A"/>
</linearGradient>
<linearGradient id="paint47_linear_11_38" x1="241.683" y1="105.966" x2="275.066" y2="120.689" gradientUnits="userSpaceOnUse">
<stop stop-color="#FFFCD7"/>
<stop offset="0.0903" stop-color="#FAE4B9"/>
<stop offset="0.2517" stop-color="#F2BD89"/>
<stop offset="0.4124" stop-color="#EC9D61"/>
<stop offset="0.5696" stop-color="#E78442"/>
<stop offset="0.7221" stop-color="#E3722C"/>
<stop offset="0.868" stop-color="#E1681F"/>
<stop offset="1" stop-color="#E0641A"/>
</linearGradient>
<linearGradient id="paint48_linear_11_38" x1="57.0343" y1="127.577" x2="57.0343" y2="148.944" gradientUnits="userSpaceOnUse">
<stop stop-color="#FFFCD7"/>
<stop offset="0.1114" stop-color="#F9EEBC"/>
<stop offset="0.3007" stop-color="#F0D895"/>
<stop offset="0.4877" stop-color="#E9C876"/>
<stop offset="0.6692" stop-color="#E4BC60"/>
<stop offset="0.8429" stop-color="#E1B453"/>
<stop offset="1" stop-color="#E0B24E"/>
</linearGradient>
<linearGradient id="paint49_linear_11_38" x1="161.047" y1="150.536" x2="161.047" y2="185.818" gradientUnits="userSpaceOnUse">
<stop stop-color="#FFFCD7"/>
<stop offset="0.0903" stop-color="#FAE4B9"/>
<stop offset="0.2517" stop-color="#F2BD89"/>
<stop offset="0.4124" stop-color="#EC9D61"/>
<stop offset="0.5696" stop-color="#E78442"/>
<stop offset="0.7221" stop-color="#E3722C"/>
<stop offset="0.868" stop-color="#E1681F"/>
<stop offset="1" stop-color="#E0641A"/>
</linearGradient>
<linearGradient id="paint50_linear_11_38" x1="168.748" y1="153.062" x2="174.827" y2="187.736" gradientUnits="userSpaceOnUse">
<stop stop-color="#FFFCD7"/>
<stop offset="0.0903" stop-color="#FAE4B9"/>
<stop offset="0.2517" stop-color="#F2BD89"/>
<stop offset="0.4124" stop-color="#EC9D61"/>
<stop offset="0.5696" stop-color="#E78442"/>
<stop offset="0.7221" stop-color="#E3722C"/>
<stop offset="0.868" stop-color="#E1681F"/>
<stop offset="1" stop-color="#E0641A"/>
</linearGradient>
<linearGradient id="paint51_linear_11_38" x1="173.433" y1="151.756" x2="184.167" y2="185.212" gradientUnits="userSpaceOnUse">
<stop stop-color="#FFFCD7"/>
<stop offset="0.0903" stop-color="#FAE4B9"/>
<stop offset="0.2517" stop-color="#F2BD89"/>
<stop offset="0.4124" stop-color="#EC9D61"/>
<stop offset="0.5696" stop-color="#E78442"/>
<stop offset="0.7221" stop-color="#E3722C"/>
<stop offset="0.868" stop-color="#E1681F"/>
<stop offset="1" stop-color="#E0641A"/>
</linearGradient>
<linearGradient id="paint52_linear_11_38" x1="179.026" y1="149.957" x2="195.077" y2="181.92" gradientUnits="userSpaceOnUse">
<stop stop-color="#FFFCD7"/>
<stop offset="0.0903" stop-color="#FAE4B9"/>
<stop offset="0.2517" stop-color="#F2BD89"/>
<stop offset="0.4124" stop-color="#EC9D61"/>
<stop offset="0.5696" stop-color="#E78442"/>
<stop offset="0.7221" stop-color="#E3722C"/>
<stop offset="0.868" stop-color="#E1681F"/>
<stop offset="1" stop-color="#E0641A"/>
</linearGradient>
<linearGradient id="paint53_linear_11_38" x1="186.459" y1="146.095" x2="205.252" y2="176.398" gradientUnits="userSpaceOnUse">
<stop stop-color="#FFFCD7"/>
<stop offset="0.0903" stop-color="#FAE4B9"/>
<stop offset="0.2517" stop-color="#F2BD89"/>
<stop offset="0.4124" stop-color="#EC9D61"/>
<stop offset="0.5696" stop-color="#E78442"/>
<stop offset="0.7221" stop-color="#E3722C"/>
<stop offset="0.868" stop-color="#E1681F"/>
<stop offset="1" stop-color="#E0641A"/>
</linearGradient>
<linearGradient id="paint54_linear_11_38" x1="194.425" y1="141.173" x2="215.614" y2="169.66" gradientUnits="userSpaceOnUse">
<stop stop-color="#FFFCD7"/>
<stop offset="0.0903" stop-color="#FAE4B9"/>
<stop offset="0.2517" stop-color="#F2BD89"/>
<stop offset="0.4124" stop-color="#EC9D61"/>
<stop offset="0.5696" stop-color="#E78442"/>
<stop offset="0.7221" stop-color="#E3722C"/>
<stop offset="0.868" stop-color="#E1681F"/>
<stop offset="1" stop-color="#E0641A"/>
</linearGradient>
<linearGradient id="paint55_linear_11_38" x1="201.754" y1="132.586" x2="233.054" y2="161.138" gradientUnits="userSpaceOnUse">
<stop stop-color="#FFFCD7"/>
<stop offset="0.0903" stop-color="#FAE4B9"/>
<stop offset="0.2517" stop-color="#F2BD89"/>
<stop offset="0.4124" stop-color="#EC9D61"/>
<stop offset="0.5696" stop-color="#E78442"/>
<stop offset="0.7221" stop-color="#E3722C"/>
<stop offset="0.868" stop-color="#E1681F"/>
<stop offset="1" stop-color="#E0641A"/>
</linearGradient>
<linearGradient id="paint56_linear_11_38" x1="210.387" y1="131.972" x2="245.743" y2="150.975" gradientUnits="userSpaceOnUse">
<stop stop-color="#FFFCD7"/>
<stop offset="0.0903" stop-color="#FAE4B9"/>
<stop offset="0.2517" stop-color="#F2BD89"/>
<stop offset="0.4124" stop-color="#EC9D61"/>
<stop offset="0.5696" stop-color="#E78442"/>
<stop offset="0.7221" stop-color="#E3722C"/>
<stop offset="0.868" stop-color="#E1681F"/>
<stop offset="1" stop-color="#E0641A"/>
</linearGradient>
<linearGradient id="paint57_linear_11_38" x1="217.558" y1="125.173" x2="255.575" y2="137.755" gradientUnits="userSpaceOnUse">
<stop stop-color="#FFFCD7"/>
<stop offset="0.0903" stop-color="#FAE4B9"/>
<stop offset="0.2517" stop-color="#F2BD89"/>
<stop offset="0.4124" stop-color="#EC9D61"/>
<stop offset="0.5696" stop-color="#E78442"/>
<stop offset="0.7221" stop-color="#E3722C"/>
<stop offset="0.868" stop-color="#E1681F"/>
<stop offset="1" stop-color="#E0641A"/>
</linearGradient>
<linearGradient id="paint58_linear_11_38" x1="218.939" y1="119.397" x2="258.239" y2="126.659" gradientUnits="userSpaceOnUse">
<stop stop-color="#FFFCD7"/>
<stop offset="0.0903" stop-color="#FAE4B9"/>
<stop offset="0.2517" stop-color="#F2BD89"/>
<stop offset="0.4124" stop-color="#EC9D61"/>
<stop offset="0.5696" stop-color="#E78442"/>
<stop offset="0.7221" stop-color="#E3722C"/>
<stop offset="0.868" stop-color="#E1681F"/>
<stop offset="1" stop-color="#E0641A"/>
</linearGradient>
<linearGradient id="paint59_linear_11_38" x1="220.31" y1="112.355" x2="261.012" y2="113.487" gradientUnits="userSpaceOnUse">
<stop stop-color="#FFFCD7"/>
<stop offset="0.0903" stop-color="#FAE4B9"/>
<stop offset="0.2517" stop-color="#F2BD89"/>
<stop offset="0.4124" stop-color="#EC9D61"/>
<stop offset="0.5696" stop-color="#E78442"/>
<stop offset="0.7221" stop-color="#E3722C"/>
<stop offset="0.868" stop-color="#E1681F"/>
<stop offset="1" stop-color="#E0641A"/>
</linearGradient>
<linearGradient id="paint60_linear_11_38" x1="220.498" y1="102.271" x2="261.008" y2="99.7581" gradientUnits="userSpaceOnUse">
<stop stop-color="#FFFCD7"/>
<stop offset="0.0903" stop-color="#FAE4B9"/>
<stop offset="0.2517" stop-color="#F2BD89"/>
<stop offset="0.4124" stop-color="#EC9D61"/>
<stop offset="0.5696" stop-color="#E78442"/>
<stop offset="0.7221" stop-color="#E3722C"/>
<stop offset="0.868" stop-color="#E1681F"/>
<stop offset="1" stop-color="#E0641A"/>
</linearGradient>
<linearGradient id="paint61_linear_11_38" x1="219.863" y1="91.0254" x2="259.834" y2="85.1328" gradientUnits="userSpaceOnUse">
<stop stop-color="#FFFCD7"/>
<stop offset="0.0903" stop-color="#FAE4B9"/>
<stop offset="0.2517" stop-color="#F2BD89"/>
<stop offset="0.4124" stop-color="#EC9D61"/>
<stop offset="0.5696" stop-color="#E78442"/>
<stop offset="0.7221" stop-color="#E3722C"/>
<stop offset="0.868" stop-color="#E1681F"/>
<stop offset="1" stop-color="#E0641A"/>
</linearGradient>
<linearGradient id="paint62_linear_11_38" x1="215.739" y1="78.5651" x2="260.519" y2="62.8194" gradientUnits="userSpaceOnUse">
<stop stop-color="#FFFCD7"/>
<stop offset="0.0903" stop-color="#FAE4B9"/>
<stop offset="0.2517" stop-color="#F2BD89"/>
<stop offset="0.4124" stop-color="#EC9D61"/>
<stop offset="0.5696" stop-color="#E78442"/>
<stop offset="0.7221" stop-color="#E3722C"/>
<stop offset="0.868" stop-color="#E1681F"/>
<stop offset="1" stop-color="#E0641A"/>
</linearGradient>
</defs>
</svg>
