<svg width="122" height="56" viewBox="0 0 122 56" fill="none" xmlns="http://www.w3.org/2000/svg">
<path d="M36.43 46.7258C42.6079 42.4941 44.1857 34.0554 39.954 27.8774C35.7223 21.6995 27.2836 20.1217 21.1056 24.3534C14.9277 28.5851 13.3499 37.0238 17.5816 43.2018C21.8133 49.3797 30.252 50.9575 36.43 46.7258Z" fill="white"/>
<path d="M102.5 45.0045C107.715 39.6301 107.586 31.0457 102.211 25.8307C96.8368 20.6158 88.2525 20.7451 83.0375 26.1195C77.8226 31.494 77.9519 40.0784 83.3263 45.2933C88.7008 50.5083 97.2852 50.3789 102.5 45.0045Z" fill="white"/>
<path d="M119.629 42.9362C120.644 38.6214 117.969 34.3008 113.655 33.2857C109.34 32.2706 105.019 34.9455 104.004 39.2602C102.989 43.575 105.664 47.8956 109.979 48.9107C114.294 49.9258 118.614 47.2509 119.629 42.9362Z" fill="white"/>
<path d="M17.463 42.9325C18.478 38.6178 15.8031 34.2971 11.4884 33.282C7.17369 32.267 2.85303 34.9419 1.83795 39.2566C0.82288 43.5713 3.49778 47.892 7.81251 48.907C12.1272 49.9221 16.4479 47.2472 17.463 42.9325Z" fill="white"/>
<path d="M82.5689 34.805C86.5731 23.5912 80.7287 11.2546 69.5149 7.25039C58.3012 3.24617 45.9646 9.09064 41.9604 20.3044C37.9561 31.5181 43.8006 43.8547 55.0143 47.8589C66.2281 51.8632 78.5647 46.0187 82.5689 34.805Z" fill="white"/>
<path d="M111.819 35.5522H9.65588V49.1113H111.819V35.5522Z" fill="white"/>
</svg>
