<svg width="92" height="44" viewBox="0 0 92 44" fill="none" xmlns="http://www.w3.org/2000/svg">
<path d="M13.581 43.1859C21.0816 43.1859 27.162 37.1055 27.162 29.6049C27.162 22.1044 21.0816 16.0239 13.581 16.0239C6.08041 16.0239 0 22.1044 0 29.6049C0 37.1055 6.08041 43.1859 13.581 43.1859Z" fill="white"/>
<path d="M77.682 43.1859C85.1826 43.1859 91.263 37.1055 91.263 29.6049C91.263 22.1044 85.1826 16.0239 77.682 16.0239C70.1814 16.0239 64.101 22.1044 64.101 29.6049C64.101 37.1055 70.1814 43.1859 77.682 43.1859Z" fill="white"/>
<path d="M47.125 43.186C59.0505 43.186 68.718 33.5185 68.718 21.593C68.718 9.6675 59.0505 0 47.125 0C35.1995 0 25.532 9.6675 25.532 21.593C25.532 33.5185 35.1995 43.186 47.125 43.186Z" fill="white"/>
<path d="M77.682 29.605H13.581V43.186H77.682V29.605Z" fill="white"/>
</svg>
