<svg width="125" height="52" viewBox="0 0 125 52" fill="none" xmlns="http://www.w3.org/2000/svg">
<path d="M30.4495 47.4723C37.9379 47.4723 44.0085 41.4017 44.0085 33.9132C44.0085 26.4248 37.9379 20.3542 30.4495 20.3542C22.961 20.3542 16.8905 26.4248 16.8905 33.9132C16.8905 41.4017 22.961 47.4723 30.4495 47.4723Z" fill="white"/>
<path d="M94.4475 47.4723C101.936 47.4723 108.006 41.4017 108.006 33.9132C108.006 26.4248 101.936 20.3542 94.4475 20.3542C86.9591 20.3542 80.8885 26.4248 80.8885 33.9132C80.8885 41.4017 86.9591 47.4723 94.4475 47.4723Z" fill="white"/>
<path d="M118.737 45.5208C122.099 42.6321 122.483 37.5647 119.594 34.2026C116.705 30.8404 111.638 30.4566 108.276 33.3454C104.913 36.2341 104.53 41.3015 107.418 44.6636C110.307 48.0258 115.375 48.4096 118.737 45.5208Z" fill="white"/>
<path d="M16.719 45.4033C20.0066 42.4304 20.2618 37.3551 17.2888 34.0674C14.3158 30.7797 9.24057 30.5246 5.95288 33.4976C2.6652 36.4705 2.41007 41.5458 5.38304 44.8335C8.35601 48.1212 13.4313 48.3763 16.719 45.4033Z" fill="white"/>
<path d="M84.932 30.8897C87.6681 19.3021 80.4926 7.69037 68.905 4.95421C57.3174 2.21805 45.7057 9.39358 42.9695 20.9812C40.2334 32.5688 47.4089 44.1805 58.9965 46.9167C70.5841 49.6528 82.1958 42.4773 84.932 30.8897Z" fill="white"/>
<path d="M113.504 33.9133H11.3415V47.4723H113.504V33.9133Z" fill="white"/>
</svg>
