<svg width="62" height="30" viewBox="0 0 62 30" fill="none" xmlns="http://www.w3.org/2000/svg">
<path d="M9.187 29.2141C14.2608 29.2141 18.374 25.1009 18.374 20.0271C18.374 14.9533 14.2608 10.8401 9.187 10.8401C4.11316 10.8401 0 14.9533 0 20.0271C0 25.1009 4.11316 29.2141 9.187 29.2141Z" fill="white"/>
<path d="M52.548 29.2141C57.6219 29.2141 61.735 25.1009 61.735 20.0271C61.735 14.9533 57.6219 10.8401 52.548 10.8401C47.4742 10.8401 43.361 14.9533 43.361 20.0271C43.361 25.1009 47.4742 29.2141 52.548 29.2141Z" fill="white"/>
<path d="M31.878 29.214C39.9452 29.214 46.485 22.6742 46.485 14.607C46.485 6.53977 39.9452 0 31.878 0C23.8108 0 17.271 6.53977 17.271 14.607C17.271 22.6742 23.8108 29.214 31.878 29.214Z" fill="white"/>
<path d="M52.548 20.0271H9.18701V29.2141H52.548V20.0271Z" fill="white"/>
</svg>
